<svg width="1817" height="1520" viewBox="0 0 1817 1520" fill="none" xmlns="http://www.w3.org/2000/svg">
<path d="M1659.72 0.279297H156.632C70.2807 0.279297 0.279297 70.2824 0.279297 156.636V1362.85C0.279297 1449.21 70.2807 1519.21 156.632 1519.21H1659.72C1746.07 1519.21 1816.07 1449.21 1816.07 1362.85V156.636C1816.07 70.2824 1746.07 0.279297 1659.72 0.279297Z" fill="#F9F7F4"/>
<path d="M1659.72 0.279297H156.632C70.2807 0.279297 0.279297 70.2824 0.279297 156.636V1362.85C0.279297 1449.21 70.2807 1519.21 156.632 1519.21H1659.72C1746.07 1519.21 1816.07 1449.21 1816.07 1362.85V156.636C1816.07 70.2824 1746.07 0.279297 1659.72 0.279297Z" stroke="#AF711E" stroke-width="0.56" stroke-miterlimit="10"/>
<path d="M1218.04 306.533L1181.31 415.558L1283.01 306.533H1363.01L1239.63 418.74L1290.62 561.311H1238.09C1221.6 561.311 1214.08 541.743 1210.04 528.729L1187.29 456.913C1177.45 464.914 1167.72 473.108 1158.27 481.494C1148.54 506.847 1141.11 533.259 1131.28 558.612C1130.9 559.48 1130.61 560.54 1130.03 561.311H1064.96L1152.87 306.63H1218.13L1218.04 306.533Z" fill="#DDAC6B"/>
<path d="M701.166 306.533C700.299 310.004 699.142 313.377 697.985 316.751C694.708 326.198 691.527 336.223 687.96 345.478C681.598 361.865 673.694 367.938 655.861 368.613C632.629 369.577 608.82 367.938 585.492 368.613C560.43 372.565 542.886 398.593 533.632 420.378C522.546 446.406 512.329 497.496 553.971 499.52C568.912 500.292 584.721 498.556 599.566 499.52C614.411 500.484 631.087 507.521 626.846 525.837L615.278 560.926C593.011 560.54 570.84 561.311 548.573 560.926C523.992 560.444 500.954 558.323 481.193 542.224C447.84 515.137 449.961 472.529 460.275 434.549C479.361 364.468 532.475 306.919 609.302 306.919L610.169 306.533H701.263H701.166Z" fill="#DDAC6B"/>
<path d="M823.974 529.115C795.73 553.696 771.728 559.673 734.616 560.926C704.348 561.89 673.791 561.312 643.523 561.697L642.27 561.119L657.114 517.258C662.512 502.895 677.839 500.196 691.527 499.617C712.445 498.75 735.194 501.256 755.726 499.617C792.453 496.725 817.516 443.225 824.938 412.089C828.505 397.051 832.36 371.602 811.25 368.71H773.367L749.268 440.044C744.159 452.286 738.086 462.601 723.82 464.432C707.625 465.203 691.431 464.625 675.237 464.818L729.314 307.016H829.758C852.7 308.172 878.823 310.293 891.354 332.561C913.621 372.18 887.402 436.959 866.966 473.301C855.688 493.448 841.422 513.98 823.974 529.211V529.115Z" fill="#DDAC6B"/>
<path d="M1088.19 403.027L1075.37 445.249C1071.42 459.998 1057.25 464.047 1043.56 464.722H899.836C904.367 451.13 907.74 437.152 912.367 423.656C918.151 406.98 928.851 404.184 945.527 403.027H1088.1H1088.19Z" fill="#DDAC6B"/>
<path d="M1120.48 306.919C1117.5 316.269 1114.99 325.909 1112.1 335.259C1109.78 342.489 1107.09 353.768 1102.07 359.262C1095.9 366.01 1085.3 367.842 1076.62 368.613H932.225L945.238 325.813C949.768 310.775 964.71 307.497 978.687 306.822H1120.58L1120.48 306.919Z" fill="#DDAC6B"/>
<path d="M1054.84 499.52C1050.7 511.955 1047.42 524.776 1043.27 537.307C1041.15 543.67 1039.71 549.261 1034.21 553.695C1026.89 559.768 1016.76 560.539 1007.7 561.214H866.484C866.484 561.214 868.123 554.852 868.412 553.984C871.786 542.706 875.256 530.174 879.209 519.185C884.51 504.339 894.921 500.869 909.766 499.52H1054.84Z" fill="#DDAC6B"/>
</svg>
