<svg width="1848" height="1520" viewBox="0 0 1848 1520" fill="none" xmlns="http://www.w3.org/2000/svg">
<path d="M1689.21 0.275391H157.978C70.8812 0.275391 0.275391 70.8827 0.275391 157.981V1361.5C0.275391 1448.6 70.8812 1519.21 157.978 1519.21H1689.21C1776.31 1519.21 1846.91 1448.6 1846.91 1361.5V157.981C1846.91 70.8827 1776.31 0.275391 1689.21 0.275391Z" fill="#F9F7F4"/>
<path d="M1689.21 0.275391H157.978C70.8812 0.275391 0.275391 70.8827 0.275391 157.981V1361.5C0.275391 1448.6 70.8812 1519.21 157.978 1519.21H1689.21C1776.31 1519.21 1846.91 1448.6 1846.91 1361.5V157.981C1846.91 70.8827 1776.31 0.275391 1689.21 0.275391Z" stroke="#AF711E" stroke-width="0.55" stroke-miterlimit="10"/>
<path d="M542.498 229.025C557.535 231.628 589.442 250.715 601.877 260.933C684.295 328.893 660.678 469.537 558.596 505.107C529.388 515.325 452.08 514.747 419.209 512.048C406.581 510.987 397.809 503.372 394.243 491.419L394.532 304.794C365.902 292.937 363.3 255.631 371.493 229.122H542.498V229.025ZM540.184 343.063H489.963V397.817H540.184V343.063Z" fill="#DDAC6B"/>
<path d="M1279.05 495.853C1278.09 499.42 1271.92 502.216 1267.77 502.794C1257.46 504.24 1227.58 504.336 1217.36 502.794C1209.36 501.541 1205.98 493.443 1199.24 493.347C1192.49 493.251 1185.16 501.444 1176.29 502.601C1108.82 512.048 1072.28 469.923 1078.07 404.372C1081.54 365.235 1109.3 336.798 1148.72 333.713C1166.37 332.364 1179.96 337.665 1196.83 338.437C1198.08 328.026 1192.39 279.152 1203.67 279.152H1272.11C1272.59 279.152 1278.95 285.515 1278.95 285.997V495.757L1279.05 495.853ZM1156.44 442.835C1158.56 444.377 1180.73 444.184 1185.07 442.835C1190.37 441.293 1203.09 420.856 1201.07 414.398C1200.68 413.145 1189.02 395.889 1188.05 395.215C1183.72 392.226 1157.88 391.937 1156.24 393.576C1154.6 395.215 1146.03 418.736 1146.51 422.784C1146.7 424.423 1155.57 442.16 1156.44 442.835Z" fill="#DDAC6B"/>
<path d="M978.011 402.348H941.574V495.853C941.574 496.335 935.212 502.698 934.73 502.698H866.29C865.808 502.698 859.445 496.335 859.445 495.853V336.22C859.445 333.328 866.771 329.761 870.723 329.279C880.556 327.929 926.247 327.737 933.958 330.147C938.778 331.593 941.478 339.112 947.647 338.148C953.816 337.184 966.444 327.544 976.662 325.809C1027.94 316.94 1059.56 346.149 1064.48 395.793C1066.12 411.891 1067.56 478.502 1064 490.744C1061.49 499.517 1052.43 502.312 1044.33 502.987C1032.09 504.047 978.011 506.168 978.011 491.419V402.445V402.348Z" fill="#DDAC6B"/>
<path d="M1446.78 344.027C1449.19 346.244 1464.23 367.451 1466.83 371.789C1478.97 392.129 1482.25 411.216 1477.53 434.447C1467.79 482.646 1418.05 519.47 1368.79 510.794C1299.29 498.648 1268.06 415.361 1310.76 358.872C1332.94 329.567 1372.65 319.446 1407.93 325.711C1413.23 326.675 1443.69 341.135 1446.68 343.93L1446.78 344.027ZM1388.46 388.659C1381.81 379.79 1378.34 396.853 1374.96 400.034C1370.72 403.986 1362.43 406.396 1356.55 406.878C1364.94 416.807 1367.64 424.519 1365.71 438.785C1381.52 435.797 1388.27 433.001 1402.15 443.316C1403.88 431.845 1395.69 413.24 1411.21 415.843C1414 401.769 1399.64 404.757 1392.89 400.034C1387.88 396.66 1389.33 389.719 1388.46 388.562V388.659Z" fill="#DDAC6B"/>
<path d="M821.851 483.321C817.031 488.334 793.896 502.311 786.57 505.011C751.29 518.217 711.479 510.505 686.03 482.164C651.714 443.798 654.22 373.332 697.309 342.87C711.286 332.941 744.06 322.916 761.122 324.941C783.197 327.543 814.139 345.762 827.538 363.499C846.721 389.045 849.998 422.977 839.009 452.57C836.792 458.643 825.61 479.369 821.851 483.321ZM777.316 402.348C760.158 399.07 744.446 402.444 727.191 402.348L750.037 447.943C760.158 447.172 780.016 404.757 777.413 402.348H777.316Z" fill="#DDAC6B"/>
<path d="M417.575 653.345H416.005C415.7 653.107 415.391 652.837 415.077 652.536C414.768 652.239 414.443 651.856 414.102 651.388C413.765 650.924 413.482 650.385 413.252 649.771C413.026 649.156 412.913 648.488 412.913 647.767C412.913 646.835 413.095 645.993 413.46 645.239C413.825 644.486 414.215 643.886 414.631 643.438C415.052 642.986 415.51 642.55 416.005 642.129H417.575C417.131 642.613 416.748 643.075 416.427 643.515C416.106 643.955 415.815 644.54 415.553 645.269C415.295 645.995 415.167 646.819 415.167 647.743C415.167 648.683 415.295 649.513 415.553 650.235C415.815 650.956 416.102 651.529 416.415 651.953C416.729 652.381 417.115 652.845 417.575 653.345ZM418.182 642.242H420.435L422.969 645.335L425.514 642.242H427.768V650.484H425.282V645.709L423.04 648.474H422.844L420.596 645.709V650.484H418.182V642.242ZM429.444 645.15C429.853 644.865 430.299 644.657 430.782 644.526C431.27 644.391 431.776 644.324 432.299 644.324C432.751 644.324 433.141 644.369 433.47 644.46C433.803 644.552 434.077 644.68 434.291 644.847C434.509 645.013 434.672 645.214 434.779 645.448C434.886 645.681 434.939 645.943 434.939 646.233V648.57C434.939 648.784 434.959 648.948 434.999 649.063C435.038 649.174 435.116 649.23 435.231 649.23C435.282 649.23 435.334 649.224 435.385 649.212C435.441 649.196 435.492 649.18 435.54 649.164C435.591 649.144 435.637 649.125 435.677 649.105C435.716 649.085 435.75 649.069 435.778 649.057V650.181C435.671 650.225 435.556 650.27 435.433 650.318C435.31 650.365 435.173 650.411 435.022 650.455C434.876 650.494 434.713 650.526 434.535 650.55C434.356 650.578 434.162 650.591 433.952 650.591C433.75 650.591 433.585 650.568 433.458 650.52C433.332 650.476 433.23 650.421 433.155 650.354C433.08 650.286 433.024 650.217 432.989 650.145C432.957 650.07 432.933 650.005 432.917 649.949C432.834 650.017 432.739 650.088 432.632 650.163C432.525 650.239 432.396 650.308 432.245 650.371C432.099 650.435 431.926 650.486 431.728 650.526C431.534 650.57 431.306 650.591 431.044 650.591C430.687 650.591 430.392 650.544 430.158 650.449C429.928 650.35 429.744 650.227 429.605 650.08C429.47 649.929 429.375 649.765 429.32 649.586C429.268 649.408 429.242 649.236 429.242 649.069C429.242 648.776 429.3 648.526 429.415 648.32C429.534 648.11 429.694 647.929 429.896 647.779C430.103 647.628 430.346 647.497 430.628 647.386C430.909 647.275 431.215 647.168 431.544 647.065C431.774 646.99 431.958 646.93 432.097 646.887C432.235 646.843 432.346 646.807 432.43 646.78C432.513 646.752 432.58 646.728 432.632 646.708C432.683 646.684 432.739 646.657 432.798 646.625C432.798 646.51 432.788 646.397 432.769 646.286C432.753 646.175 432.713 646.076 432.65 645.989C432.586 645.898 432.491 645.824 432.364 645.769C432.237 645.713 432.065 645.685 431.847 645.685C431.589 645.685 431.343 645.719 431.11 645.787C430.88 645.85 430.664 645.935 430.461 646.042C430.259 646.145 430.073 646.262 429.902 646.393C429.732 646.524 429.579 646.657 429.444 646.792V645.15ZM432.798 647.588C432.588 647.676 432.394 647.761 432.216 647.844C432.037 647.923 431.883 648.009 431.752 648.1C431.621 648.191 431.518 648.294 431.443 648.409C431.371 648.524 431.335 648.659 431.335 648.813C431.335 648.924 431.351 649.02 431.383 649.099C431.419 649.178 431.464 649.244 431.52 649.295C431.575 649.343 431.637 649.378 431.704 649.402C431.776 649.426 431.847 649.438 431.918 649.438C432.005 649.438 432.093 649.422 432.18 649.39C432.267 649.358 432.348 649.321 432.424 649.277C432.503 649.234 432.574 649.188 432.638 649.14C432.705 649.093 432.759 649.053 432.798 649.022V647.588ZM438.465 644.431L439.583 646.078L440.713 644.431H443.056L440.767 647.303L443.199 650.484H440.559L439.387 648.766L438.222 650.484H435.879L438.222 647.511L435.831 644.431H438.465ZM443.895 645.15C444.303 644.865 444.749 644.657 445.233 644.526C445.72 644.391 446.226 644.324 446.749 644.324C447.201 644.324 447.592 644.369 447.921 644.46C448.254 644.552 448.527 644.68 448.741 644.847C448.959 645.013 449.122 645.214 449.229 645.448C449.336 645.681 449.389 645.943 449.389 646.233V648.57C449.389 648.784 449.409 648.948 449.449 649.063C449.489 649.174 449.566 649.23 449.681 649.23C449.732 649.23 449.784 649.224 449.835 649.212C449.891 649.196 449.942 649.18 449.99 649.164C450.042 649.144 450.087 649.125 450.127 649.105C450.166 649.085 450.2 649.069 450.228 649.057V650.181C450.121 650.225 450.006 650.27 449.883 650.318C449.76 650.365 449.623 650.411 449.473 650.455C449.326 650.494 449.163 650.526 448.985 650.55C448.807 650.578 448.612 650.591 448.402 650.591C448.2 650.591 448.036 650.568 447.909 650.52C447.782 650.476 447.681 650.421 447.605 650.354C447.53 650.286 447.475 650.217 447.439 650.145C447.407 650.07 447.383 650.005 447.368 649.949C447.284 650.017 447.189 650.088 447.082 650.163C446.975 650.239 446.846 650.308 446.696 650.371C446.549 650.435 446.376 650.486 446.178 650.526C445.984 650.57 445.756 650.591 445.494 650.591C445.138 650.591 444.842 650.544 444.608 650.449C444.378 650.35 444.194 650.227 444.055 650.08C443.921 649.929 443.825 649.765 443.77 649.586C443.718 649.408 443.693 649.236 443.693 649.069C443.693 648.776 443.75 648.526 443.865 648.32C443.984 648.11 444.145 647.929 444.347 647.779C444.553 647.628 444.797 647.497 445.078 647.386C445.36 647.275 445.665 647.168 445.994 647.065C446.224 646.99 446.408 646.93 446.547 646.887C446.686 646.843 446.797 646.807 446.88 646.78C446.963 646.752 447.031 646.728 447.082 646.708C447.134 646.684 447.189 646.657 447.249 646.625C447.249 646.51 447.239 646.397 447.219 646.286C447.203 646.175 447.163 646.076 447.1 645.989C447.037 645.898 446.941 645.824 446.815 645.769C446.688 645.713 446.515 645.685 446.297 645.685C446.039 645.685 445.794 645.719 445.56 645.787C445.33 645.85 445.114 645.935 444.912 646.042C444.709 646.145 444.523 646.262 444.353 646.393C444.182 646.524 444.03 646.657 443.895 646.792V645.15ZM447.249 647.588C447.039 647.676 446.844 647.761 446.666 647.844C446.487 647.923 446.333 648.009 446.202 648.1C446.071 648.191 445.968 648.294 445.893 648.409C445.821 648.524 445.786 648.659 445.786 648.813C445.786 648.924 445.802 649.02 445.833 649.099C445.869 649.178 445.915 649.244 445.97 649.295C446.026 649.343 446.087 649.378 446.154 649.402C446.226 649.426 446.297 649.438 446.369 649.438C446.456 649.438 446.543 649.422 446.63 649.39C446.717 649.358 446.799 649.321 446.874 649.277C446.953 649.234 447.025 649.188 447.088 649.14C447.155 649.093 447.209 649.053 447.249 649.022V647.588ZM455.033 650.484V648.403C454.819 648.581 454.561 648.728 454.26 648.843C453.958 648.954 453.582 649.01 453.13 649.01C452.718 649.01 452.359 648.964 452.054 648.873C451.752 648.778 451.5 648.631 451.298 648.433C451.1 648.231 450.951 647.977 450.852 647.672C450.757 647.362 450.71 646.994 450.71 646.566V644.431H452.85V645.989C452.85 646.246 452.866 646.462 452.898 646.637C452.93 646.811 452.983 646.952 453.058 647.059C453.138 647.166 453.241 647.243 453.368 647.291C453.499 647.335 453.659 647.356 453.849 647.356C453.976 647.356 454.099 647.341 454.218 647.309C454.341 647.273 454.454 647.228 454.557 647.172C454.664 647.117 454.757 647.055 454.837 646.988C454.92 646.916 454.985 646.843 455.033 646.768V644.431H457.174V650.484H455.033ZM462.484 647.255C462.615 647.275 462.732 647.305 462.835 647.345C462.938 647.38 463.033 647.434 463.12 647.505C463.211 647.576 463.301 647.67 463.388 647.785C463.475 647.9 463.568 648.044 463.667 648.219L464.958 650.484H462.573L461.776 648.914C461.689 648.736 461.604 648.591 461.521 648.48C461.441 648.365 461.358 648.276 461.271 648.213C461.184 648.145 461.092 648.1 460.997 648.076C460.902 648.048 460.797 648.034 460.682 648.034V650.484H458.541V644.431H460.682V646.649C460.789 646.649 460.888 646.637 460.979 646.613C461.071 646.589 461.156 646.546 461.235 646.482C461.318 646.419 461.398 646.336 461.473 646.233C461.548 646.126 461.626 645.993 461.705 645.834L461.937 645.37C462.012 645.216 462.089 645.081 462.169 644.966C462.252 644.847 462.361 644.748 462.496 644.669C462.631 644.589 462.805 644.53 463.019 644.49C463.237 644.451 463.519 644.431 463.863 644.431H464.518V646.024H464.262C464.175 646.024 464.099 646.03 464.036 646.042C463.976 646.05 463.923 646.07 463.875 646.102C463.828 646.129 463.782 646.171 463.739 646.227C463.699 646.278 463.655 646.349 463.608 646.441L463.483 646.661C463.443 646.728 463.39 646.797 463.322 646.869C463.255 646.936 463.178 646.998 463.09 647.053C463.003 647.109 462.908 647.156 462.805 647.196C462.702 647.232 462.595 647.251 462.484 647.255ZM465.778 645.15C466.187 644.865 466.633 644.657 467.116 644.526C467.604 644.391 468.109 644.324 468.633 644.324C469.085 644.324 469.475 644.369 469.804 644.46C470.137 644.552 470.411 644.68 470.625 644.847C470.843 645.013 471.005 645.214 471.112 645.448C471.219 645.681 471.273 645.943 471.273 646.233V648.57C471.273 648.784 471.293 648.948 471.332 649.063C471.372 649.174 471.449 649.23 471.564 649.23C471.616 649.23 471.667 649.224 471.719 649.212C471.774 649.196 471.826 649.18 471.874 649.164C471.925 649.144 471.971 649.125 472.01 649.105C472.05 649.085 472.084 649.069 472.111 649.057V650.181C472.004 650.225 471.889 650.27 471.767 650.318C471.644 650.365 471.507 650.411 471.356 650.455C471.21 650.494 471.047 650.526 470.869 650.55C470.69 650.578 470.496 650.591 470.286 650.591C470.084 650.591 469.919 650.568 469.792 650.52C469.665 650.476 469.564 650.421 469.489 650.354C469.414 650.286 469.358 650.217 469.322 650.145C469.291 650.07 469.267 650.005 469.251 649.949C469.168 650.017 469.073 650.088 468.966 650.163C468.859 650.239 468.73 650.308 468.579 650.371C468.432 650.435 468.26 650.486 468.062 650.526C467.868 650.57 467.64 650.591 467.378 650.591C467.021 650.591 466.726 650.544 466.492 650.449C466.262 650.35 466.078 650.227 465.939 650.08C465.804 649.929 465.709 649.765 465.653 649.586C465.602 649.408 465.576 649.236 465.576 649.069C465.576 648.776 465.634 648.526 465.749 648.32C465.867 648.11 466.028 647.929 466.23 647.779C466.436 647.628 466.68 647.497 466.962 647.386C467.243 647.275 467.548 647.168 467.877 647.065C468.107 646.99 468.292 646.93 468.43 646.887C468.569 646.843 468.68 646.807 468.763 646.78C468.847 646.752 468.914 646.728 468.966 646.708C469.017 646.684 469.073 646.657 469.132 646.625C469.132 646.51 469.122 646.397 469.102 646.286C469.087 646.175 469.047 646.076 468.984 645.989C468.92 645.898 468.825 645.824 468.698 645.769C468.571 645.713 468.399 645.685 468.181 645.685C467.923 645.685 467.677 645.719 467.443 645.787C467.213 645.85 466.997 645.935 466.795 646.042C466.593 646.145 466.407 646.262 466.236 646.393C466.066 646.524 465.913 646.657 465.778 646.792V645.15ZM469.132 647.588C468.922 647.676 468.728 647.761 468.549 647.844C468.371 647.923 468.216 648.009 468.086 648.1C467.955 648.191 467.852 648.294 467.776 648.409C467.705 648.524 467.669 648.659 467.669 648.813C467.669 648.924 467.685 649.02 467.717 649.099C467.753 649.178 467.798 649.244 467.854 649.295C467.909 649.343 467.971 649.378 468.038 649.402C468.109 649.426 468.181 649.438 468.252 649.438C468.339 649.438 468.427 649.422 468.514 649.39C468.601 649.358 468.682 649.321 468.758 649.277C468.837 649.234 468.908 649.188 468.972 649.14C469.039 649.093 469.093 649.053 469.132 649.022V647.588ZM476.869 650.484L475.614 647.321L474.222 650.484H472.141L474.894 644.431H476.476L479.17 650.484H476.869ZM479.836 645.15C480.244 644.865 480.69 644.657 481.174 644.526C481.662 644.391 482.167 644.324 482.69 644.324C483.142 644.324 483.533 644.369 483.862 644.46C484.195 644.552 484.469 644.68 484.683 644.847C484.901 645.013 485.063 645.214 485.17 645.448C485.277 645.681 485.331 645.943 485.331 646.233V648.57C485.331 648.784 485.351 648.948 485.39 649.063C485.43 649.174 485.507 649.23 485.622 649.23C485.674 649.23 485.725 649.224 485.777 649.212C485.832 649.196 485.884 649.18 485.931 649.164C485.983 649.144 486.028 649.125 486.068 649.105C486.108 649.085 486.141 649.069 486.169 649.057V650.181C486.062 650.225 485.947 650.27 485.824 650.318C485.701 650.365 485.565 650.411 485.414 650.455C485.267 650.494 485.105 650.526 484.926 650.55C484.748 650.578 484.554 650.591 484.344 650.591C484.141 650.591 483.977 650.568 483.85 650.52C483.723 650.476 483.622 650.421 483.547 650.354C483.471 650.286 483.416 650.217 483.38 650.145C483.349 650.07 483.325 650.005 483.309 649.949C483.226 650.017 483.131 650.088 483.023 650.163C482.916 650.239 482.788 650.308 482.637 650.371C482.49 650.435 482.318 650.486 482.12 650.526C481.925 650.57 481.697 650.591 481.436 650.591C481.079 650.591 480.784 650.544 480.55 650.449C480.32 650.35 480.135 650.227 479.997 650.08C479.862 649.929 479.767 649.765 479.711 649.586C479.66 649.408 479.634 649.236 479.634 649.069C479.634 648.776 479.691 648.526 479.806 648.32C479.925 648.11 480.086 647.929 480.288 647.779C480.494 647.628 480.738 647.497 481.019 647.386C481.301 647.275 481.606 647.168 481.935 647.065C482.165 646.99 482.35 646.93 482.488 646.887C482.627 646.843 482.738 646.807 482.821 646.78C482.905 646.752 482.972 646.728 483.023 646.708C483.075 646.684 483.131 646.657 483.19 646.625C483.19 646.51 483.18 646.397 483.16 646.286C483.144 646.175 483.105 646.076 483.041 645.989C482.978 645.898 482.883 645.824 482.756 645.769C482.629 645.713 482.457 645.685 482.239 645.685C481.981 645.685 481.735 645.719 481.501 645.787C481.271 645.85 481.055 645.935 480.853 646.042C480.651 646.145 480.464 646.262 480.294 646.393C480.124 646.524 479.971 646.657 479.836 646.792V645.15ZM483.19 647.588C482.98 647.676 482.786 647.761 482.607 647.844C482.429 647.923 482.274 648.009 482.143 648.1C482.013 648.191 481.909 648.294 481.834 648.409C481.763 648.524 481.727 648.659 481.727 648.813C481.727 648.924 481.743 649.02 481.775 649.099C481.81 649.178 481.856 649.244 481.911 649.295C481.967 649.343 482.028 649.378 482.096 649.402C482.167 649.426 482.239 649.438 482.31 649.438C482.397 649.438 482.484 649.422 482.572 649.39C482.659 649.358 482.74 649.321 482.815 649.277C482.895 649.234 482.966 649.188 483.029 649.14C483.097 649.093 483.15 649.053 483.19 649.022V647.588ZM490.403 647.707C490.403 648.421 490.288 649.089 490.058 649.711C489.832 650.334 489.551 650.881 489.214 651.353C488.877 651.828 488.548 652.221 488.227 652.53C487.91 652.839 487.604 653.111 487.311 653.345H485.735C486.179 652.873 486.562 652.413 486.883 651.965C487.208 651.521 487.499 650.936 487.757 650.211C488.019 649.481 488.149 648.655 488.149 647.731C488.149 646.792 488.021 645.963 487.763 645.245C487.505 644.528 487.218 643.955 486.901 643.527C486.587 643.099 486.199 642.633 485.735 642.129H487.311C487.727 642.45 488.161 642.849 488.613 643.325C489.065 643.8 489.476 644.421 489.844 645.186C490.217 645.947 490.403 646.788 490.403 647.707Z" fill="#DDAC6B"/>
</svg>
