<svg width="1817" height="1520" viewBox="0 0 1817 1520" fill="none" xmlns="http://www.w3.org/2000/svg">
<path d="M1659.72 0.279297H156.632C70.2807 0.279297 0.279297 70.2824 0.279297 156.636V1362.85C0.279297 1449.21 70.2807 1519.21 156.632 1519.21H1659.72C1746.07 1519.21 1816.07 1449.21 1816.07 1362.85V156.636C1816.07 70.2824 1746.07 0.279297 1659.72 0.279297Z" fill="#F9F7F4"/>
<path d="M1659.72 0.279297H156.632C70.2807 0.279297 0.279297 70.2824 0.279297 156.636V1362.85C0.279297 1449.21 70.2807 1519.21 156.632 1519.21H1659.72C1746.07 1519.21 1816.07 1449.21 1816.07 1362.85V156.636C1816.07 70.2824 1746.07 0.279297 1659.72 0.279297Z" stroke="#AF711E" stroke-width="0.56" stroke-miterlimit="10"/>
<path d="M888.173 239.249C847.976 304.992 779.439 356.082 736.447 418.162C730.182 427.223 711.288 451.516 715.144 461.541C716.108 464.818 718.132 465.3 721.12 465.879C728.639 467.228 784.259 428.187 794.477 421.054C865.135 371.506 928.562 309.715 978.591 239.249H1061.49C994.497 330.923 906.97 403.51 820.311 475.808C809.9 478.218 756.401 491.52 751.774 495.762C746.762 500.389 747.436 507.426 747.436 513.499C745.412 513.306 724.687 524.97 719.771 526.127C692.684 504.92 653.451 511.86 629.353 533.646C629.16 505.98 629.545 478.218 629.353 450.552C702.227 397.051 742.52 307.884 800.164 239.152H888.077L888.173 239.249Z" fill="#F4E3CE"/>
<path d="M1162.03 488.435C1143.62 524.68 1129.74 564.299 1107.28 598.424C1078.75 641.706 1005.29 696.075 961.914 727.114C925.959 752.852 887.979 774.638 850.578 798.063H775.197C828.6 740.61 903.403 710.534 959.89 657.13C1009.82 609.992 1034.6 562.372 1072.48 508.196C1074.99 504.63 1076.14 500.87 1081.64 501.063C1085.11 511.377 1085.88 530.85 1102.36 528.343C1129.06 524.295 1101.59 476.964 1102.94 460.865C1122.89 469.637 1142.56 478.602 1162.03 488.531V488.435Z" fill="#F4E3CE"/>
<path d="M1179.57 314.825L1111.71 430.598C1106.12 428.284 1061.01 411.029 1058.98 412.957C1066.6 441.973 1072 472.627 1081.54 501.064C1076.05 500.871 1074.89 504.631 1072.38 508.197C1034.5 562.373 1009.73 609.993 959.793 657.131C903.306 710.439 828.503 740.611 775.1 798.064H729.891L727.385 795.558C836.407 726.634 962.974 658.288 1026.4 541.358C1059.75 513.789 1067.37 464.819 1023.9 443.226L1154.51 274.627C1170.22 290.436 1172.05 292.171 1179.67 314.921L1179.57 314.825Z" fill="#DDAC6B"/>
<path d="M978.59 239.248C928.561 309.714 865.134 371.505 794.476 421.053C784.258 428.283 728.542 467.228 721.119 465.878C718.131 465.3 716.011 464.818 715.143 461.54C711.287 451.418 730.181 427.126 736.446 418.161C779.535 355.985 848.072 304.991 888.172 239.248H978.59Z" fill="#DDAC6B"/>
<path d="M1187.09 551.383C1154.99 578.567 1135.04 617.704 1107.95 649.612C1053.01 714.294 988.712 756.516 915.741 798.064H850.385C887.882 774.735 925.766 752.95 961.721 727.115C1005.1 696.075 1078.55 641.611 1107.08 598.425C1129.64 564.3 1143.43 524.681 1161.84 488.436C1166.95 491.038 1183.72 492.484 1186.51 500.196C1187.57 517.258 1186.61 534.321 1186.9 551.383H1187.09Z" fill="#DDAC6B"/>
<path d="M1086.65 239.248C1087.52 241.658 1089.64 241.465 1091.66 241.754C1055.03 314.92 1002.79 377.674 948.419 438.116C916.706 444.863 874.774 478.602 875.545 513.595L825.323 548.876C835.445 523.331 844.795 497.496 855.495 472.144L849.422 468.384C839.686 470.794 830.046 473.59 820.311 475.807C906.97 403.413 994.496 330.825 1061.49 239.248H1086.65Z" fill="#DDAC6B"/>
<path d="M1187.09 551.383C1187.58 575.579 1187.48 600.16 1187.09 624.355C1127.71 672.458 1079.61 732.031 1041.34 798.063H1003.65C1010.98 786.978 1028.62 779.459 1034.02 766.831C1035.95 762.3 1040.09 755.649 1032.57 755.263C1022.36 754.685 968.567 786.496 960.951 798.16H915.742C988.713 756.516 1053.01 714.391 1107.95 649.708C1135.04 617.801 1154.99 578.76 1187.09 551.479V551.383Z" fill="#F4E3CE"/>
<path d="M800.261 239.248C742.617 307.979 702.324 397.147 629.449 450.647C629.256 425.68 628.485 400.039 629.449 375.168L755.052 239.248H800.261Z" fill="#DDAC6B"/>
<path d="M1187.09 684.797L1091.66 798.063H1041.44C1079.61 732.031 1127.81 672.554 1187.19 624.355C1186.81 644.31 1188.44 664.939 1187.19 684.797H1187.09Z" fill="#DDAC6B"/>
<path d="M754.954 239.248L629.352 375.168C631.569 317.812 637.16 280.988 692.105 250.527L732.398 239.248H755.051H754.954Z" fill="#F4E3CE"/>
<path d="M1094.17 798.064H1091.66L1187.09 684.797C1183.14 747.551 1154.13 781.001 1094.17 798.064Z" fill="#F4E3CE"/>
<path d="M961.047 798.063C968.662 786.399 1022.35 754.588 1032.67 755.166C1040.28 755.648 1036.04 762.299 1034.11 766.734C1028.72 779.458 1011.17 786.881 1003.75 797.966H961.047V798.063Z" fill="#DDAC6B"/>
<path d="M1154.51 274.531L1023.9 443.13C1004.14 433.297 970.012 433.586 948.516 438.117C1002.79 377.772 1055.03 315.018 1091.76 241.756C1121.06 245.805 1134.56 254.287 1154.61 274.435L1154.51 274.531Z" fill="#F4E3CE"/>
<path d="M1179.57 314.824C1181.02 319.066 1187.09 327.741 1187.09 333.718V438.213C1177.65 422.307 1180.83 371.795 1150.75 390.496C1140.15 403.124 1159.91 437.056 1159.43 453.347C1156.63 456.432 1116.53 432.718 1111.71 430.694L1179.57 314.921V314.824Z" fill="#F4E3CE"/>
<path d="M747.436 513.595C750.135 513.788 753.027 521.114 763.631 521.307C771.535 521.307 804.791 508.486 807.779 511.089C798.236 538.466 784.163 564.107 775.102 591.581C764.98 596.304 743.098 605.944 734.905 611.728C748.882 585.604 743.966 545.117 719.867 526.127C724.783 524.97 745.508 513.402 747.533 513.499L747.436 513.595Z" fill="#DDAC6B"/>
<path d="M727.387 795.557C710.132 796.907 698.275 788.424 684.684 780.423C793.321 730.489 893.861 667.059 961.048 566.517C986.014 564.396 1006.84 557.552 1026.4 541.357C963.072 658.287 836.506 726.633 727.387 795.557Z" fill="#F4E3CE"/>
<path d="M875.641 513.594C876.026 532.97 898.293 557.841 915.837 563.914C841.71 644.213 743.194 694.243 649.498 747.647C635.424 726.632 631.472 715.547 629.352 689.712L692.201 641.899C715.625 638.332 721.12 621.367 734.904 611.727C743.098 606.039 764.979 596.303 775.101 591.58C773.848 595.339 763.726 614.812 768.835 616.836C785.222 609.799 869.761 594.857 877.376 585.892C884.316 577.795 880.075 563.046 869.086 561.311C859.736 559.865 817.9 576.542 815.201 573.939C814.333 564.589 822.334 556.009 825.226 548.779L875.448 513.498L875.641 513.594Z" fill="#F4E3CE"/>
<path d="M961.047 566.518C893.859 667.06 793.319 730.586 684.682 780.424C666.464 769.723 661.547 765.675 649.498 747.745C743.194 694.244 841.71 644.311 915.837 564.012C929.622 568.832 947.166 567.675 961.047 566.518Z" fill="#DDAC6B"/>
<path d="M703.865 603.341C671.283 635.634 620.676 584.158 654.414 552.54C687.767 521.211 736.639 570.952 703.865 603.341Z" fill="#DDAC6B"/>
<path d="M692.201 641.997L629.352 689.81C627.617 667.927 630.605 644.021 629.352 621.85C647.185 636.309 668.585 645.563 692.105 641.997H692.201Z" fill="#DDAC6B"/>
<path d="M1003.75 468.29L943.408 536.25C858.002 526.128 940.612 444.672 1003.75 468.29Z" fill="#F4E3CE"/>
<path d="M943.406 536.249L1003.75 468.289C1049.73 485.544 1007.8 525.838 978.205 534.514C963.938 538.659 956.901 537.791 943.503 536.249H943.406Z" fill="#DDAC6B"/>
</svg>
