<svg width="1848" height="1520" viewBox="0 0 1848 1520" fill="none" xmlns="http://www.w3.org/2000/svg">
<path d="M1689.21 0.275391H157.978C70.8812 0.275391 0.275391 70.8827 0.275391 157.981V1361.5C0.275391 1448.6 70.8812 1519.21 157.978 1519.21H1689.21C1776.31 1519.21 1846.91 1448.6 1846.91 1361.5V157.981C1846.91 70.8827 1776.31 0.275391 1689.21 0.275391Z" fill="#F9F7F4"/>
<path d="M1689.21 0.275391H157.978C70.8812 0.275391 0.275391 70.8827 0.275391 157.981V1361.5C0.275391 1448.6 70.8812 1519.21 157.978 1519.21H1689.21C1776.31 1519.21 1846.91 1448.6 1846.91 1361.5V157.981C1846.91 70.8827 1776.31 0.275391 1689.21 0.275391Z" stroke="#AF711E" stroke-width="0.55" stroke-miterlimit="10"/>
<path d="M626.382 373.357C619.741 376.775 613.076 379.119 606.387 380.389C599.746 381.658 593.057 382.293 586.318 382.293C577.383 382.293 569.351 381.048 562.222 378.558C555.142 376.019 549.111 372.454 544.131 367.864C539.199 363.274 535.415 357.781 532.778 351.385C530.19 344.988 528.896 337.908 528.896 330.145C528.896 324.188 529.604 318.768 531.021 313.885C532.485 308.953 534.512 304.559 537.1 300.701C539.688 296.844 542.764 293.499 546.328 290.667C549.941 287.835 553.896 285.491 558.193 283.636C562.49 281.731 567.056 280.34 571.89 279.461C576.724 278.533 581.68 278.069 586.758 278.069C591.055 278.069 595.132 278.338 598.989 278.875C602.847 279.412 606.436 280.071 609.756 280.853C613.076 281.585 616.079 282.415 618.765 283.343C621.499 284.222 623.892 285.027 625.942 285.76V312.713C624.526 311.834 622.744 310.784 620.596 309.563C618.496 308.294 616.079 307.098 613.345 305.975C610.659 304.803 607.656 303.826 604.336 303.045C601.064 302.215 597.524 301.8 593.716 301.8C589.37 301.8 585.171 302.459 581.118 303.777C577.065 305.096 573.477 307 570.352 309.49C567.275 311.98 564.785 315.008 562.881 318.572C561.025 322.088 560.098 326.092 560.098 330.584C560.098 334.441 560.879 338.079 562.441 341.497C564.004 344.915 566.201 347.894 569.033 350.433C571.865 352.972 575.234 354.974 579.141 356.438C583.047 357.903 587.344 358.636 592.031 358.636C596.133 358.636 599.941 358.245 603.457 357.464C606.973 356.683 610.171 355.73 613.052 354.607C615.981 353.484 618.545 352.288 620.742 351.019C622.988 349.749 624.868 348.626 626.382 347.649V373.357ZM641.982 315.276C647.012 311.761 652.505 309.197 658.462 307.586C664.468 305.926 670.693 305.096 677.139 305.096C682.705 305.096 687.515 305.657 691.567 306.78C695.669 307.903 699.038 309.49 701.675 311.541C704.36 313.592 706.362 316.058 707.681 318.938C708.999 321.819 709.658 325.042 709.658 328.606V357.391C709.658 360.027 709.902 362.054 710.391 363.47C710.879 364.837 711.831 365.521 713.247 365.521C713.882 365.521 714.517 365.447 715.151 365.301C715.835 365.105 716.47 364.91 717.056 364.715C717.69 364.471 718.252 364.227 718.74 363.982C719.229 363.738 719.644 363.543 719.985 363.396V377.239C718.667 377.776 717.251 378.338 715.737 378.924C714.224 379.51 712.539 380.071 710.684 380.608C708.877 381.097 706.875 381.487 704.678 381.78C702.48 382.122 700.088 382.293 697.5 382.293C695.01 382.293 692.983 382 691.421 381.414C689.858 380.877 688.613 380.193 687.686 379.363C686.758 378.533 686.074 377.679 685.635 376.8C685.244 375.872 684.951 375.066 684.756 374.383C683.73 375.213 682.559 376.092 681.24 377.02C679.922 377.947 678.335 378.802 676.479 379.583C674.673 380.364 672.549 380.999 670.107 381.487C667.715 382.024 664.907 382.293 661.685 382.293C657.29 382.293 653.652 381.707 650.771 380.535C647.939 379.314 645.669 377.801 643.96 375.994C642.3 374.139 641.128 372.112 640.444 369.915C639.81 367.718 639.492 365.594 639.492 363.543C639.492 359.93 640.2 356.854 641.616 354.314C643.081 351.727 645.059 349.505 647.549 347.649C650.088 345.794 653.091 344.183 656.558 342.815C660.024 341.448 663.784 340.13 667.837 338.86C670.669 337.933 672.939 337.2 674.648 336.663C676.357 336.126 677.725 335.687 678.75 335.345C679.775 335.003 680.605 334.71 681.24 334.466C681.875 334.173 682.559 333.831 683.291 333.44C683.291 332.024 683.169 330.633 682.925 329.266C682.729 327.898 682.241 326.678 681.46 325.604C680.679 324.48 679.507 323.577 677.944 322.894C676.382 322.21 674.258 321.868 671.572 321.868C668.398 321.868 665.371 322.283 662.49 323.113C659.658 323.895 656.997 324.944 654.507 326.263C652.017 327.532 649.722 328.973 647.622 330.584C645.522 332.195 643.643 333.831 641.982 335.491V315.276ZM683.291 345.306C680.703 346.38 678.311 347.43 676.113 348.455C673.916 349.432 672.012 350.481 670.4 351.604C668.789 352.728 667.52 353.997 666.592 355.413C665.713 356.829 665.273 358.489 665.273 360.394C665.273 361.761 665.469 362.933 665.859 363.909C666.299 364.886 666.86 365.691 667.544 366.326C668.228 366.912 668.984 367.352 669.814 367.645C670.693 367.938 671.572 368.084 672.451 368.084C673.525 368.084 674.6 367.889 675.674 367.498C676.748 367.107 677.749 366.644 678.677 366.106C679.653 365.569 680.532 365.008 681.313 364.422C682.144 363.836 682.803 363.348 683.291 362.957V345.306ZM778.433 343.182L802.529 306.414H823.257L829.702 380.975H804.507L801.211 345.892L778.433 380.975L755.581 345.892L752.285 380.975H727.09L733.535 306.414H754.263L778.433 343.182ZM884.927 305.096C892.056 305.096 898.281 306.097 903.604 308.099C908.975 310.052 913.442 312.762 917.007 316.229C920.571 319.646 923.232 323.724 924.99 328.46C926.797 333.147 927.7 338.201 927.7 343.621C927.7 349.041 926.797 354.119 924.99 358.855C923.232 363.543 920.571 367.645 917.007 371.16C913.442 374.627 908.975 377.361 903.604 379.363C898.281 381.316 892.056 382.293 884.927 382.293C877.798 382.293 871.548 381.316 866.177 379.363C860.854 377.361 856.411 374.627 852.847 371.16C849.331 367.645 846.67 363.543 844.863 358.855C843.105 354.119 842.227 349.041 842.227 343.621C842.227 338.201 843.105 333.147 844.863 328.46C846.67 323.724 849.331 319.646 852.847 316.229C856.411 312.762 860.854 310.052 866.177 308.099C871.548 306.097 877.798 305.096 884.927 305.096ZM884.927 324.725C882.437 324.725 880.264 325.188 878.408 326.116C876.553 326.995 874.99 328.265 873.721 329.925C872.5 331.536 871.572 333.514 870.938 335.857C870.303 338.152 869.985 340.74 869.985 343.621C869.985 346.453 870.303 349.041 870.938 351.385C871.572 353.729 872.5 355.755 873.721 357.464C874.99 359.124 876.553 360.418 878.408 361.346C880.264 362.225 882.437 362.664 884.927 362.664C887.417 362.664 889.59 362.225 891.445 361.346C893.35 360.418 894.912 359.124 896.133 357.464C897.402 355.755 898.354 353.729 898.989 351.385C899.624 349.041 899.941 346.453 899.941 343.621C899.941 340.74 899.624 338.152 898.989 335.857C898.354 333.514 897.402 331.536 896.133 329.925C894.912 328.265 893.35 326.995 891.445 326.116C889.59 325.188 887.417 324.725 884.927 324.725ZM941.47 306.414H979.556C986.196 306.414 991.519 307 995.522 308.172C999.526 309.295 1002.6 310.784 1004.75 312.64C1006.9 314.446 1008.32 316.521 1009 318.865C1009.68 321.209 1010.02 323.553 1010.02 325.896C1010.02 329.607 1008.95 332.879 1006.8 335.711C1004.7 338.543 1001.58 340.521 997.427 341.644C999.771 341.985 1001.94 342.571 1003.95 343.401C1005.95 344.231 1007.71 345.33 1009.22 346.697C1010.73 348.016 1011.9 349.627 1012.73 351.531C1013.61 353.387 1014.05 355.56 1014.05 358.05C1014.05 361.175 1013.54 364.129 1012.51 366.912C1011.49 369.695 1009.76 372.137 1007.31 374.236C1004.87 376.336 1001.63 377.996 997.573 379.217C993.569 380.389 988.564 380.975 982.559 380.975H941.47V306.414ZM967.104 364.788H975.82C980.068 364.788 983.096 364.202 984.902 363.03C986.709 361.858 987.612 360.101 987.612 357.757C987.612 355.12 986.685 353.265 984.829 352.19C982.974 351.067 980.215 350.506 976.553 350.506H967.104V364.788ZM967.104 322.601V336.883H974.575C975.698 336.883 976.797 336.761 977.871 336.517C978.945 336.272 979.897 335.882 980.728 335.345C981.606 334.808 982.29 334.075 982.778 333.147C983.315 332.22 983.584 331.072 983.584 329.705C983.584 328.289 983.315 327.142 982.778 326.263C982.241 325.335 981.533 324.603 980.654 324.065C979.824 323.528 978.848 323.162 977.725 322.967C976.65 322.723 975.552 322.601 974.429 322.601H967.104ZM1054.56 364.788H1061C1063.1 364.788 1064.86 364.568 1066.27 364.129C1067.69 363.689 1068.84 363.104 1069.72 362.371C1070.6 361.59 1071.21 360.687 1071.55 359.661C1071.94 358.636 1072.13 357.537 1072.13 356.365C1072.13 353.777 1071.3 351.653 1069.64 349.993C1067.98 348.333 1065.35 347.503 1061.73 347.503H1054.56V364.788ZM1068.03 331.316C1072.48 331.316 1076.55 331.854 1080.26 332.928C1083.97 333.953 1087.17 335.516 1089.86 337.615C1092.59 339.715 1094.72 342.303 1096.23 345.379C1097.74 348.455 1098.5 352.02 1098.5 356.072C1098.5 359.197 1097.99 362.273 1096.96 365.301C1095.94 368.279 1094.2 370.94 1091.76 373.284C1089.32 375.579 1086.07 377.435 1082.02 378.851C1078.02 380.267 1073.01 380.975 1067.01 380.975H1028.19V306.414H1054.56V331.316H1068.03ZM1136.88 306.414V380.975H1110.51V306.414H1136.88ZM1153.73 306.414H1191.81C1198.45 306.414 1203.77 307 1207.78 308.172C1211.78 309.295 1214.86 310.784 1217.01 312.64C1219.16 314.446 1220.57 316.521 1221.25 318.865C1221.94 321.209 1222.28 323.553 1222.28 325.896C1222.28 329.607 1221.21 332.879 1219.06 335.711C1216.96 338.543 1213.83 340.521 1209.68 341.644C1212.03 341.985 1214.2 342.571 1216.2 343.401C1218.2 344.231 1219.96 345.33 1221.47 346.697C1222.99 348.016 1224.16 349.627 1224.99 351.531C1225.87 353.387 1226.31 355.56 1226.31 358.05C1226.31 361.175 1225.8 364.129 1224.77 366.912C1223.75 369.695 1222.01 372.137 1219.57 374.236C1217.13 376.336 1213.88 377.996 1209.83 379.217C1205.83 380.389 1200.82 380.975 1194.81 380.975H1153.73V306.414ZM1179.36 364.788H1188.08C1192.32 364.788 1195.35 364.202 1197.16 363.03C1198.96 361.858 1199.87 360.101 1199.87 357.757C1199.87 355.12 1198.94 353.265 1197.08 352.19C1195.23 351.067 1192.47 350.506 1188.81 350.506H1179.36V364.788ZM1179.36 322.601V336.883H1186.83C1187.95 336.883 1189.05 336.761 1190.13 336.517C1191.2 336.272 1192.15 335.882 1192.98 335.345C1193.86 334.808 1194.55 334.075 1195.03 333.147C1195.57 332.22 1195.84 331.072 1195.84 329.705C1195.84 328.289 1195.57 327.142 1195.03 326.263C1194.5 325.335 1193.79 324.603 1192.91 324.065C1192.08 323.528 1191.1 323.162 1189.98 322.967C1188.91 322.723 1187.81 322.601 1186.68 322.601H1179.36ZM1280 305.096C1287.12 305.096 1293.35 306.097 1298.67 308.099C1304.04 310.052 1308.51 312.762 1312.08 316.229C1315.64 319.646 1318.3 323.724 1320.06 328.46C1321.87 333.147 1322.77 338.201 1322.77 343.621C1322.77 349.041 1321.87 354.119 1320.06 358.855C1318.3 363.543 1315.64 367.645 1312.08 371.16C1308.51 374.627 1304.04 377.361 1298.67 379.363C1293.35 381.316 1287.12 382.293 1280 382.293C1272.87 382.293 1266.62 381.316 1261.25 379.363C1255.92 377.361 1251.48 374.627 1247.92 371.16C1244.4 367.645 1241.74 363.543 1239.93 358.855C1238.17 354.119 1237.29 349.041 1237.29 343.621C1237.29 338.201 1238.17 333.147 1239.93 328.46C1241.74 323.724 1244.4 319.646 1247.92 316.229C1251.48 312.762 1255.92 310.052 1261.25 308.099C1266.62 306.097 1272.87 305.096 1280 305.096ZM1280 324.725C1277.5 324.725 1275.33 325.188 1273.48 326.116C1271.62 326.995 1270.06 328.265 1268.79 329.925C1267.57 331.536 1266.64 333.514 1266.01 335.857C1265.37 338.152 1265.05 340.74 1265.05 343.621C1265.05 346.453 1265.37 349.041 1266.01 351.385C1266.64 353.729 1267.57 355.755 1268.79 357.464C1270.06 359.124 1271.62 360.418 1273.48 361.346C1275.33 362.225 1277.5 362.664 1280 362.664C1282.49 362.664 1284.66 362.225 1286.51 361.346C1288.42 360.418 1289.98 359.124 1291.2 357.464C1292.47 355.755 1293.42 353.729 1294.06 351.385C1294.69 349.041 1295.01 346.453 1295.01 343.621C1295.01 340.74 1294.69 338.152 1294.06 335.857C1293.42 333.514 1292.47 331.536 1291.2 329.925C1289.98 328.265 1288.42 326.995 1286.51 326.116C1284.66 325.188 1282.49 324.725 1280 324.725ZM1383.05 341.644C1385.05 342.425 1386.83 343.426 1388.39 344.646C1390 345.867 1391.35 347.234 1392.42 348.748C1393.54 350.262 1394.4 351.922 1394.99 353.729C1395.62 355.486 1395.94 357.317 1395.94 359.222C1395.94 362.396 1395.23 365.398 1393.81 368.23C1392.4 371.014 1390.32 373.455 1387.59 375.555C1384.9 377.605 1381.56 379.241 1377.55 380.462C1373.55 381.683 1368.96 382.293 1363.78 382.293C1351.28 382.293 1341.2 380.853 1333.54 377.972V359.222C1334.85 360.003 1336.42 360.784 1338.22 361.565C1340.03 362.298 1341.96 362.957 1344.01 363.543C1346.06 364.129 1348.21 364.617 1350.45 365.008C1352.75 365.35 1355.04 365.521 1357.34 365.521C1359.63 365.521 1361.54 365.301 1363.05 364.861C1364.61 364.373 1365.86 363.787 1366.79 363.104C1367.76 362.371 1368.45 361.565 1368.84 360.687C1369.28 359.808 1369.5 358.978 1369.5 358.196C1369.5 356.927 1369.28 355.779 1368.84 354.754C1368.4 353.68 1367.67 352.776 1366.64 352.044C1365.62 351.263 1364.22 350.677 1362.47 350.286C1360.76 349.847 1358.61 349.627 1356.02 349.627H1344.3V336.004H1355.58C1357.78 336.004 1359.63 335.809 1361.15 335.418C1362.71 335.027 1363.96 334.515 1364.88 333.88C1365.86 333.196 1366.54 332.415 1366.93 331.536C1367.37 330.608 1367.59 329.632 1367.59 328.606C1367.59 326.653 1366.74 325.042 1365.03 323.772C1363.37 322.503 1360.61 321.868 1356.75 321.868C1353.09 321.868 1349.38 322.356 1345.62 323.333C1341.86 324.31 1338.08 325.823 1334.27 327.874V309.563C1335.49 308.929 1337.08 308.343 1339.03 307.806C1340.98 307.269 1343.15 306.805 1345.55 306.414C1347.99 305.975 1350.55 305.657 1353.24 305.462C1355.97 305.218 1358.71 305.096 1361.44 305.096C1366.96 305.096 1371.74 305.657 1375.8 306.78C1379.9 307.854 1383.29 309.344 1385.98 311.248C1388.66 313.104 1390.66 315.301 1391.98 317.84C1393.3 320.33 1393.96 323.016 1393.96 325.896C1393.96 327.605 1393.67 329.266 1393.08 330.877C1392.54 332.488 1391.79 334.002 1390.81 335.418C1389.83 336.785 1388.69 338.006 1387.37 339.08C1386.05 340.154 1384.61 341.009 1383.05 341.644Z" fill="#DDAC6B"/>
<path d="M676.93 628.688H657.594C653.834 625.759 650.025 622.438 646.168 618.728C642.359 615.065 638.355 610.354 634.156 604.592C630.006 598.879 626.515 592.238 623.683 584.67C620.899 577.102 619.508 568.874 619.508 559.987C619.508 548.513 621.754 538.137 626.246 528.859C630.738 519.582 635.548 512.185 640.675 506.667C645.851 501.101 651.49 495.729 657.594 490.554H676.93C671.461 496.511 666.749 502.199 662.794 507.619C658.839 513.039 655.25 520.241 652.027 529.226C648.854 538.161 647.267 548.317 647.267 559.694C647.267 571.267 648.854 581.496 652.027 590.383C655.25 599.27 658.79 606.325 662.647 611.55C666.505 616.823 671.266 622.536 676.93 628.688ZM684.4 491.945H712.159L743.36 530.031L774.708 491.945H802.467V593.459H771.852V534.646L744.239 568.703H741.822L714.137 534.646V593.459H684.4V491.945ZM863.331 517.58C870.46 517.58 876.686 518.581 882.008 520.583C887.379 522.536 891.847 525.246 895.411 528.713C898.976 532.131 901.637 536.208 903.395 540.944C905.201 545.632 906.104 550.686 906.104 556.105C906.104 561.525 905.201 566.604 903.395 571.34C901.637 576.027 898.976 580.129 895.411 583.645C891.847 587.111 887.379 589.846 882.008 591.848C876.686 593.801 870.46 594.777 863.331 594.777C856.202 594.777 849.952 593.801 844.581 591.848C839.259 589.846 834.815 587.111 831.251 583.645C827.735 580.129 825.074 576.027 823.268 571.34C821.51 566.604 820.631 561.525 820.631 556.105C820.631 550.686 821.51 545.632 823.268 540.944C825.074 536.208 827.735 532.131 831.251 528.713C834.815 525.246 839.259 522.536 844.581 520.583C849.952 518.581 856.202 517.58 863.331 517.58ZM863.331 537.209C860.841 537.209 858.668 537.673 856.812 538.601C854.957 539.479 853.395 540.749 852.125 542.409C850.904 544.021 849.977 545.998 849.342 548.342C848.707 550.637 848.39 553.225 848.39 556.105C848.39 558.938 848.707 561.525 849.342 563.869C849.977 566.213 850.904 568.239 852.125 569.948C853.395 571.608 854.957 572.902 856.812 573.83C858.668 574.709 860.841 575.148 863.331 575.148C865.821 575.148 867.994 574.709 869.85 573.83C871.754 572.902 873.316 571.608 874.537 569.948C875.807 568.239 876.759 566.213 877.394 563.869C878.028 561.525 878.346 558.938 878.346 556.105C878.346 553.225 878.028 550.637 877.394 548.342C876.759 545.998 875.807 544.021 874.537 542.409C873.316 540.749 871.754 539.479 869.85 538.601C867.994 537.673 865.821 537.209 863.331 537.209ZM982.569 542.629C981.397 542.238 979.957 541.823 978.248 541.384C976.588 540.896 974.83 540.456 972.975 540.065C971.168 539.626 969.337 539.26 967.481 538.967C965.675 538.674 963.99 538.527 962.428 538.527C960.475 538.527 958.424 538.845 956.275 539.479C954.176 540.065 952.247 541.042 950.489 542.409C948.731 543.776 947.291 545.583 946.168 547.829C945.045 550.026 944.483 552.736 944.483 555.959C944.483 559.133 945.045 561.867 946.168 564.162C947.291 566.408 948.731 568.264 950.489 569.729C952.247 571.145 954.176 572.194 956.275 572.878C958.424 573.513 960.475 573.83 962.428 573.83C963.941 573.83 965.602 573.684 967.408 573.391C969.264 573.098 971.119 572.731 972.975 572.292C974.879 571.853 976.759 571.364 978.614 570.827C980.47 570.29 982.179 569.777 983.741 569.289V590.017C982.228 590.554 980.616 591.115 978.907 591.701C977.247 592.238 975.392 592.751 973.341 593.239C971.29 593.679 969.044 594.045 966.603 594.338C964.21 594.631 961.524 594.777 958.546 594.777C952.638 594.777 947.486 594.094 943.092 592.727C938.746 591.311 935.011 589.479 931.886 587.233C928.81 584.987 926.271 582.473 924.269 579.689C922.315 576.857 920.777 574.001 919.654 571.12C918.531 568.239 917.75 565.48 917.311 562.844C916.92 560.158 916.725 557.863 916.725 555.959C916.725 554.055 916.92 551.784 917.311 549.147C917.75 546.511 918.531 543.776 919.654 540.944C920.777 538.112 922.315 535.305 924.269 532.521C926.271 529.689 928.81 527.175 931.886 524.978C935.011 522.78 938.746 520.998 943.092 519.631C947.486 518.264 952.638 517.58 958.546 517.58C961.524 517.58 964.161 517.702 966.456 517.946C968.8 518.19 970.924 518.532 972.828 518.972C974.732 519.362 976.466 519.826 978.028 520.363C979.591 520.852 981.104 521.364 982.569 521.901V542.629ZM1045.19 553.688C1046.8 553.933 1048.24 554.299 1049.51 554.787C1050.78 555.227 1051.95 555.886 1053.03 556.765C1054.15 557.644 1055.25 558.791 1056.32 560.207C1057.4 561.623 1058.55 563.405 1059.77 565.554L1075.66 593.459H1046.29L1036.48 574.123C1035.4 571.926 1034.35 570.144 1033.33 568.776C1032.35 567.36 1031.32 566.262 1030.25 565.48C1029.18 564.65 1028.05 564.089 1026.88 563.796C1025.71 563.454 1024.42 563.283 1023 563.283V593.459H996.632V518.898H1023V546.218C1024.32 546.218 1025.54 546.071 1026.66 545.778C1027.78 545.485 1028.83 544.948 1029.81 544.167C1030.84 543.386 1031.81 542.36 1032.74 541.091C1033.67 539.772 1034.62 538.137 1035.6 536.184L1038.45 530.471C1039.38 528.566 1040.33 526.906 1041.31 525.49C1042.33 524.025 1043.68 522.805 1045.34 521.828C1047 520.852 1049.15 520.119 1051.78 519.631C1054.47 519.143 1057.94 518.898 1062.18 518.898H1070.24V538.527H1067.09C1066.02 538.527 1065.09 538.601 1064.31 538.747C1063.58 538.845 1062.92 539.089 1062.33 539.479C1061.74 539.821 1061.18 540.334 1060.65 541.018C1060.16 541.652 1059.62 542.531 1059.03 543.654L1057.5 546.364C1057.01 547.194 1056.35 548.049 1055.52 548.928C1054.69 549.758 1053.74 550.515 1052.66 551.198C1051.59 551.882 1050.42 552.468 1049.15 552.956C1047.88 553.396 1046.56 553.64 1045.19 553.688ZM1086.43 518.898H1124.51C1131.15 518.898 1136.48 519.484 1140.48 520.656C1144.48 521.779 1147.56 523.269 1149.71 525.124C1151.86 526.931 1153.27 529.006 1153.96 531.35C1154.64 533.693 1154.98 536.037 1154.98 538.381C1154.98 542.092 1153.91 545.363 1151.76 548.195C1149.66 551.027 1146.53 553.005 1142.38 554.128C1144.73 554.47 1146.9 555.056 1148.9 555.886C1150.9 556.716 1152.66 557.814 1154.18 559.182C1155.69 560.5 1156.86 562.111 1157.69 564.016C1158.57 565.871 1159.01 568.044 1159.01 570.534C1159.01 573.659 1158.5 576.613 1157.47 579.396C1156.45 582.18 1154.71 584.621 1152.27 586.721C1149.83 588.82 1146.58 590.48 1142.53 591.701C1138.53 592.873 1133.52 593.459 1127.52 593.459H1086.43V518.898ZM1112.06 577.272H1120.78C1125.03 577.272 1128.05 576.687 1129.86 575.515C1131.67 574.343 1132.57 572.585 1132.57 570.241C1132.57 567.604 1131.64 565.749 1129.79 564.675C1127.93 563.552 1125.17 562.99 1121.51 562.99H1112.06V577.272ZM1112.06 535.085V549.367H1119.53C1120.66 549.367 1121.75 549.245 1122.83 549.001C1123.9 548.757 1124.85 548.366 1125.68 547.829C1126.56 547.292 1127.25 546.56 1127.74 545.632C1128.27 544.704 1128.54 543.557 1128.54 542.189C1128.54 540.773 1128.27 539.626 1127.74 538.747C1127.2 537.819 1126.49 537.087 1125.61 536.55C1124.78 536.013 1123.8 535.646 1122.68 535.451C1121.61 535.207 1120.51 535.085 1119.39 535.085H1112.06ZM1172.49 527.761C1177.52 524.245 1183.01 521.682 1188.97 520.07C1194.97 518.41 1201.2 517.58 1207.64 517.58C1213.21 517.58 1218.02 518.142 1222.07 519.265C1226.17 520.388 1229.54 521.975 1232.18 524.025C1234.86 526.076 1236.87 528.542 1238.18 531.423C1239.5 534.304 1240.16 537.526 1240.16 541.091V569.875C1240.16 572.512 1240.41 574.538 1240.89 575.954C1241.38 577.321 1242.33 578.005 1243.75 578.005C1244.39 578.005 1245.02 577.932 1245.66 577.785C1246.34 577.59 1246.97 577.395 1247.56 577.199C1248.19 576.955 1248.76 576.711 1249.24 576.467C1249.73 576.223 1250.15 576.027 1250.49 575.881V589.724C1249.17 590.261 1247.75 590.822 1246.24 591.408C1244.73 591.994 1243.04 592.556 1241.19 593.093C1239.38 593.581 1237.38 593.972 1235.18 594.265C1232.98 594.606 1230.59 594.777 1228 594.777C1225.51 594.777 1223.49 594.484 1221.92 593.898C1220.36 593.361 1219.12 592.678 1218.19 591.848C1217.26 591.018 1216.58 590.163 1216.14 589.284C1215.75 588.356 1215.46 587.551 1215.26 586.867C1214.23 587.697 1213.06 588.576 1211.74 589.504C1210.43 590.432 1208.84 591.286 1206.98 592.067C1205.18 592.849 1203.05 593.483 1200.61 593.972C1198.22 594.509 1195.41 594.777 1192.19 594.777C1187.79 594.777 1184.16 594.191 1181.28 593.02C1178.44 591.799 1176.17 590.285 1174.46 588.479C1172.8 586.623 1171.63 584.597 1170.95 582.399C1170.31 580.202 1170 578.078 1170 576.027C1170 572.414 1170.7 569.338 1172.12 566.799C1173.58 564.211 1175.56 561.989 1178.05 560.134C1180.59 558.278 1183.59 556.667 1187.06 555.3C1190.53 553.933 1194.29 552.614 1198.34 551.345C1201.17 550.417 1203.44 549.685 1205.15 549.147C1206.86 548.61 1208.23 548.171 1209.25 547.829C1210.28 547.487 1211.11 547.194 1211.74 546.95C1212.38 546.657 1213.06 546.315 1213.79 545.925C1213.79 544.509 1213.67 543.117 1213.43 541.75C1213.23 540.383 1212.75 539.162 1211.96 538.088C1211.18 536.965 1210.01 536.062 1208.45 535.378C1206.89 534.694 1204.76 534.353 1202.08 534.353C1198.9 534.353 1195.88 534.768 1192.99 535.598C1190.16 536.379 1187.5 537.429 1185.01 538.747C1182.52 540.017 1180.23 541.457 1178.13 543.068C1176.03 544.68 1174.15 546.315 1172.49 547.976V527.761ZM1213.79 557.79C1211.21 558.864 1208.81 559.914 1206.62 560.939C1204.42 561.916 1202.52 562.966 1200.9 564.089C1199.29 565.212 1198.02 566.481 1197.1 567.897C1196.22 569.313 1195.78 570.974 1195.78 572.878C1195.78 574.245 1195.97 575.417 1196.36 576.394C1196.8 577.37 1197.36 578.176 1198.05 578.811C1198.73 579.396 1199.49 579.836 1200.32 580.129C1201.2 580.422 1202.08 580.568 1202.96 580.568C1204.03 580.568 1205.1 580.373 1206.18 579.982C1207.25 579.592 1208.25 579.128 1209.18 578.591C1210.16 578.054 1211.04 577.492 1211.82 576.906C1212.65 576.32 1213.31 575.832 1213.79 575.441V557.79ZM1302.64 559.255C1302.64 568.044 1301.22 576.271 1298.39 583.938C1295.61 591.604 1292.14 598.342 1287.99 604.152C1283.84 610.012 1279.79 614.846 1275.83 618.654C1271.92 622.463 1268.17 625.808 1264.55 628.688H1245.14C1250.61 622.878 1255.32 617.214 1259.28 611.696C1263.28 606.228 1266.87 599.025 1270.04 590.09C1273.27 581.105 1274.88 570.925 1274.88 559.548C1274.88 547.976 1273.29 537.771 1270.12 528.933C1266.94 520.095 1263.4 513.039 1259.5 507.766C1255.64 502.492 1250.86 496.755 1245.14 490.554H1264.55C1269.68 494.509 1275.03 499.416 1280.59 505.275C1286.16 511.135 1291.21 518.776 1295.75 528.2C1300.34 537.575 1302.64 547.927 1302.64 559.255Z" fill="#DDAC6B"/>
</svg>
