<svg width="1738" height="1520" viewBox="0 0 1738 1520" fill="none" xmlns="http://www.w3.org/2000/svg">
<path d="M1584.23 0.265625H153.148C68.7134 0.265625 0.265625 68.715 0.265625 153.152V1366.31C0.265625 1450.75 68.7134 1519.2 153.148 1519.2H1584.23C1668.66 1519.2 1737.11 1450.75 1737.11 1366.31V153.152C1737.11 68.715 1668.66 0.265625 1584.23 0.265625Z" fill="#F9F7F4"/>
<path d="M1584.23 0.265625H153.148C68.7134 0.265625 0.265625 68.715 0.265625 153.152V1366.31C0.265625 1450.75 68.7134 1519.2 153.148 1519.2H1584.23C1668.66 1519.2 1737.11 1450.75 1737.11 1366.31V153.152C1737.11 68.715 1668.66 0.265625 1584.23 0.265625Z" stroke="#AF711E" stroke-width="0.53" stroke-miterlimit="10"/>
<path d="M840.25 238.078V799.303H280.389V238.078H840.25ZM461.033 372.649C443.2 375.637 434.139 401.086 432.789 416.799C430.09 446.682 433.657 498.833 475.685 492.856C517.713 486.879 521.762 362.334 461.129 372.649H461.033ZM401.075 375.348H331.671V491.507H352.781V393.47H381.411V491.507H401.075V375.348ZM552.03 375.348H530.919V409.28C530.919 418.63 545.475 434.15 554.343 434.15H577.767V491.507H598.878V375.348H577.767V416.124C573.237 417.377 552.126 415.256 552.126 409.376V375.444L552.03 375.348ZM681.777 375.348H625.965V393.47H644.087V491.507H663.751V393.47H681.874V375.348H681.777ZM753.495 375.348C741.446 373.323 724.576 376.794 711.949 375.348L707.418 491.507H728.529L730.071 434.15H758.7L763.906 490.061C766.026 493.049 780.1 490.735 784.341 491.507L773.352 393.085C771.617 384.988 761.11 376.601 753.399 375.348H753.495ZM648.617 586.554V545.778H632.038V661.937H648.617V614.413C648.617 612.389 674.162 589.157 677.247 585.012L680.235 661.937H698.357C696.815 621.739 695.369 581.542 693.826 541.247L653.148 584.241L648.617 586.458V586.554ZM739.132 586.554V545.778H721.01V661.937H739.132V614.413C739.132 612.389 764.002 588.097 767.762 585.012L770.75 661.937L788.872 661.166L784.341 541.247L739.036 586.458L739.132 586.554ZM424.788 544.621C411.004 547.417 403.292 569.299 401.268 581.445C397.798 601.592 398.376 656.153 423.631 662.804C448.887 669.456 460.84 644.778 464.214 623.378C468.552 596.387 465.274 536.428 424.788 544.718V544.621ZM538.438 544.332C461.804 538.163 463.057 669.167 538.438 665.022C537.763 661.744 539.402 648.345 538.245 647.092C537.667 646.417 525.232 644.778 521.762 643.236C487.927 627.812 495.253 560.431 538.342 562.455V544.429L538.438 544.332ZM610.831 544.332C534.293 538.163 535.546 669.263 610.831 665.022C610.156 661.744 611.795 648.345 610.638 647.092C610.059 646.417 597.624 644.778 594.154 643.236C560.319 627.812 567.646 560.431 610.734 562.455V544.429L610.831 544.332ZM349.793 628.776C358.469 632.054 365.409 636.681 373.988 629.644C388.929 617.401 387.869 574.697 377.555 559.467C373.024 552.719 361.553 545.778 353.552 545.778H331.671V661.937H349.793V628.776Z" fill="#DDAC6B"/>
<path d="M1436.36 238.078V799.303H874.953V238.078H1436.36ZM1401.66 272.781H909.655V764.6H1401.66V272.781Z" fill="#DDAC6B"/>
<path d="M755.711 414.582H730.07L731.613 393.471C749.253 390.772 754.94 397.809 755.808 414.582H755.711Z" fill="#DDAC6B"/>
<path d="M465.564 390.676C480.12 387.687 484.843 409.28 485.614 419.788C486.578 431.837 486.386 474.927 468.167 475.023C456.696 475.023 452.936 454.683 452.262 445.622C451.298 433.958 450.43 393.857 465.468 390.772L465.564 390.676Z" fill="#DDAC6B"/>
<path d="M430.861 561.104C452.164 557.731 448.405 617.4 445.128 629.739C437.416 658.08 422.475 647.862 418.137 624.63C415.727 612.002 414.088 563.804 430.958 561.104H430.861Z" fill="#DDAC6B"/>
<path d="M349.794 564.672C350.854 560.913 356.252 563.612 358.373 564.962C368.591 571.613 369.94 612.967 359.337 614.992C353.746 616.052 349.697 604.774 349.697 600.918C349.697 593.013 348.155 570.36 349.697 564.672H349.794Z" fill="#DDAC6B"/>
<path d="M1050.01 533.728C1051.07 532.668 1056.46 526.595 1056.08 526.209C1052.61 526.787 1050.49 528.812 1046.73 529.776C1044.22 530.45 1041.04 529.101 1039.5 529.872C1034.97 532.186 1020.03 556.092 1013.86 561.587C1008.07 566.792 1000.36 570.166 992.747 571.323C992.458 566.696 993.614 562.165 995.06 557.827C997.277 551.176 1002.19 545.97 1004.8 539.705C998.338 542.211 994.868 547.898 988.216 550.983C981.565 554.068 974.335 555.417 967.106 554.743C970.383 540.765 981.18 532.089 991.205 523.124C978.48 527.173 963.443 535.656 949.658 533.632C948.02 533.439 946.574 534.21 947.441 531.414C954.478 508.568 993.518 501.242 1013.86 500.471C1014.63 505.002 1012.7 502.881 1010.29 503.652C1000.75 506.833 991.397 510.111 982.143 514.063C982.143 517.148 988.024 515.22 989.759 514.834C993.422 514.159 1013.47 507.894 1015.01 506.255C1015.3 505.966 1015.59 498.639 1016.85 497.483C988.506 502.592 959.491 507.797 930.862 502.013C930.187 498.543 931.247 499.603 932.789 498.639C946.67 489.867 969.612 486.011 985.903 485.337C987.831 485.337 1014.15 485.047 1009.33 488.421L987.831 490.349L974.625 494.398C990.723 496.904 1005.95 487.843 1021.38 491.41L1022.05 494.398L1030.34 491.41L1017.81 489.578C1013.66 486.975 1006.24 486.879 1007.69 480.806C984.072 485.819 958.045 483.794 936.163 473.094C934.042 472.034 923.728 466.057 923.15 464.997C921.607 461.912 925.656 463.069 926.909 462.78C949.177 458.827 970.383 462.972 992.554 465.768L955.539 455.261C942.333 449.477 928.741 443.693 921.607 430.294C945.995 426.823 969.323 437.524 992.554 443.115L966.431 427.787C947.923 414.581 936.645 401.182 939.73 376.793C944.164 371.877 997.47 422.582 1003.25 427.209C1007.01 430.294 1005.18 434.535 1013.76 432.511C988.698 411.785 960.262 389.903 964.118 353.562C965.082 344.5 965.564 337.945 973.757 346.525C983.3 356.55 993.133 368.31 1000.75 379.878C1009.42 392.988 1018.48 407.255 1018.29 423.45C1020.89 423.835 1019.74 419.979 1019.74 418.148C1020.22 407.255 1016.07 398.001 1029.57 408.315C1038.44 415.063 1043.07 426.052 1043.93 436.945C1046.73 437.234 1045.38 433.571 1045.28 431.836C1045.09 428.173 1042.49 424.124 1046.25 420.365C1050.1 425.57 1052.99 431.547 1057.52 436.27C1063.4 442.343 1079.79 450.441 1081.43 457.671C1084.23 470.106 1072.37 480.131 1074.2 490.542C1075.65 498.832 1098.2 498.447 1104.28 494.494L1105.91 497.386L1104.47 486.879C1110.16 488.325 1116.52 490.638 1119.51 483.891C1104.76 491.024 1093.09 474.926 1104.37 464.226C1108.13 477.625 1123.55 471.455 1127.03 461.237C1120.37 467.214 1114.01 470.395 1110.45 459.695L1117.96 458.924L1128.57 446.103C1128.86 451.212 1128.76 456.225 1127.12 461.141C1132.33 456.417 1130.5 456.514 1133.19 452.08C1134.16 454.104 1135.41 455.164 1134.74 458.153C1138.3 457.574 1133.77 453.525 1139.27 456.61C1139.56 460.755 1140.91 464.226 1139.27 468.66C1141.97 467.889 1145.15 458.153 1147.56 458.153C1150.26 458.153 1150.06 466.828 1149.87 468.66C1152.76 466.443 1153.73 465.768 1157.39 467.117C1148.62 458.635 1147.46 452.947 1157.39 444.464C1157.49 448.898 1162.02 451.308 1162.02 455.743C1162.02 460.177 1157.1 465.093 1157.39 465.575C1157.58 465.864 1161.63 467.696 1163.37 470.106C1163.17 473.673 1163.85 477.143 1162.69 480.709C1161.73 483.698 1155.94 487.65 1157.29 489.674C1157.58 490.06 1164.62 491.41 1164.52 496.229C1164.43 501.049 1157.97 505.966 1157.29 510.882C1153.24 507.219 1145.73 498.061 1149 492.759C1150.74 489.964 1156.81 491.12 1155.85 487.554C1155.56 486.397 1151.99 486.301 1150.16 482.734C1148.42 479.456 1148.23 475.408 1148.33 471.745C1145.73 471.359 1146.59 477.143 1146.88 478.492C1147.56 481.77 1149.87 483.698 1149.77 486.879L1143.8 483.891C1150.93 493.627 1143.99 499.025 1140.71 507.99C1136.18 505.291 1130.01 498.35 1130.78 492.856C1130.98 491.795 1135.7 479.746 1136.28 479.264C1137.15 478.589 1140.33 481.288 1140.81 480.806L1139.27 470.299L1130.98 485.337L1125.68 474.829C1122.59 480.806 1129.72 485.144 1130.01 490.542C1130.01 492.856 1127.03 504.616 1125.68 506.448C1125.39 506.833 1118.16 510.689 1118.16 511.846C1118.16 515.123 1120.47 517.726 1119.31 523.413C1118.93 525.534 1108.23 548.67 1106.78 548.67C1105.14 548.67 1105.34 543.657 1103.02 544.139L1106.01 557.731L1100.03 556.285C1104.57 563.515 1104.66 575.082 1099.26 581.927C1091.65 574.408 1088.85 561.394 1087.89 550.983C1087.6 547.224 1091.46 539.608 1086.44 536.716C1086.83 539.319 1083.55 543.561 1083.45 545.103C1083.45 545.778 1086.44 545.681 1086.54 546.645C1086.83 550.308 1084.13 568.72 1083.07 573.251C1078.25 593.591 1072.85 583.18 1071.41 569.106C1070.83 563.804 1070.63 551.369 1071.21 546.356C1071.6 543.464 1074.39 544.332 1074.39 543.368C1074.49 540.09 1071.79 531.993 1072.08 527.655L1066.78 532.957L1071.31 532.186C1069.77 550.405 1071.89 577.492 1050.2 584.24C1041.43 568.624 1052.99 552.911 1059.26 538.933C1059.26 537.005 1051.07 538.933 1050.2 538.162C1049.91 537.873 1050.39 534.885 1050.2 533.632C1042.39 541.536 1031.02 550.116 1030.63 562.262C1037.18 560.719 1044.8 541.536 1047.5 539.994C1049.52 538.837 1053.76 539.994 1056.27 539.705C1045.38 556.092 1039.21 573.926 1018.58 580.384C1017.33 568.142 1022.73 556.574 1029.38 546.742C1034.29 539.415 1040.56 530.932 1050.2 530.643C1050.29 531.607 1050.01 532.764 1050.2 533.632L1050.01 533.728ZM1015.3 416.027C1008.07 407.062 1001.04 395.88 993.422 387.397C992.169 385.951 983.782 376.697 982.047 378.336C987.638 391.446 999.109 403.881 1010 413.039C1011.74 414.485 1012.41 416.702 1015.3 416.027ZM1003.25 437.138C1000.27 432.704 967.877 407.833 965.563 410.05C974.432 422.678 988.698 432.029 1003.25 437.138ZM1033.43 441.669C1031.21 437.813 1028.99 434.824 1024.36 437.138L1033.43 441.669ZM1047.02 455.261C1031.4 459.695 1021.67 457.671 1013.09 443.211C1015.79 453.14 1003.45 444.464 997.278 444.753L1022.92 455.357L1016.94 458.345C1023.3 459.117 1034.39 458.442 1040.08 459.791C1041.72 460.177 1040.37 462.78 1041.81 462.876C1041.43 452.465 1052.42 455.55 1059.16 458.345L1049.33 446.296C1051.36 455.453 1046.05 447.742 1044.03 449.284L1047.02 455.261ZM1013.76 464.322C1014.15 461.141 1014.05 460.273 1011.25 458.538C1002.58 453.236 980.601 449.477 969.998 447.742L992.94 457.189C998.049 459.213 1005.76 458.731 1010.39 460.755C1012.8 461.816 1011.25 464.611 1013.66 464.226L1013.76 464.322ZM1050.01 473.383C1050.01 473.383 1049.81 471.937 1050.01 471.166L1045.48 467.407C1045.09 470.684 1046.44 476.661 1050.01 473.383ZM1043.93 473.383C1030.92 476.372 1017.81 469.72 1004.7 468.853L1017.91 474.54C1027.06 472.323 1038.53 481.481 1043.93 473.383ZM990.434 471.937C983.493 471.263 975.589 472.419 968.552 471.937L987.638 476.275C995.157 475.6 1002.96 478.782 1010.1 478.685C1011.45 478.685 1014.24 478.492 1013.86 476.468C1006.24 476.179 997.856 472.709 990.434 471.937ZM1052.99 488.518L1041.72 482.445C1040.17 484.373 1042 487.65 1037.96 486.975C1039.11 489.964 1044.41 487.843 1047.5 489.964C1049.43 491.217 1047.5 496.615 1052.99 488.518ZM1045.38 501.917C1045.76 501.339 1046.15 497.675 1044.8 497.579L1039.5 503.556C1040.56 503.845 1045.19 502.302 1045.38 501.917ZM1060.61 502.11H1056.08C1058.87 506.833 1056.85 508.761 1053.09 511.942L1057.62 515.702L1060.61 502.11ZM1033.43 506.64L1021.38 508.183L1026.68 509.629C1028.32 510.014 1027.64 511.653 1026.68 512.713C1025.33 514.063 990.144 528.33 995.735 533.824C999.495 533.342 1003.45 530.932 1006.72 529.005C1009.33 527.462 1027.93 513.292 1028.9 514.256C1031.3 516.666 1010.58 531.222 1009.33 534.596C1009.13 535.752 1010.87 535.656 1011.54 535.367C1012.8 534.788 1030.73 518.497 1031.3 517.244C1032.17 515.22 1024.85 511.267 1033.43 506.737V506.64ZM1108.9 509.629L1102.83 510.496V518.69C1106.2 518.69 1103.31 512.328 1104.47 511.267C1105.43 510.4 1109.39 512.617 1108.9 509.725V509.629ZM1098.3 520.232C1095.21 520.907 1090.78 514.159 1090.01 514.159C1088.56 514.159 1082.68 525.631 1077.57 517.533C1075.26 513.87 1077.77 511.749 1071.21 514.159C1073.43 515.702 1073.91 521.1 1074.3 521.678C1074.68 522.16 1085.48 518.594 1084.8 524.763C1088.56 523.028 1085.86 513.292 1091.65 518.69C1094.25 521.1 1093.48 526.402 1098.3 520.232ZM1043.93 517.148H1035.64L1033.43 518.594C1037.09 517.63 1042.49 521.871 1044.03 517.148H1043.93ZM1039.4 526.209C1039.4 526.209 1039.98 523.028 1038.63 523.221C1035.55 524.57 1008.75 542.404 1012.22 545.874C1021.57 542.597 1028.61 534.306 1035.64 527.751C1036.8 526.691 1039.21 526.402 1039.4 526.209ZM1065.14 535.27L1062.15 535.945C1064.85 545.97 1054.73 555.707 1057.62 566.889C1060.8 564.864 1061.77 558.116 1062.63 554.55C1064.08 548.188 1065.62 541.825 1065.14 535.174V535.27ZM1078.63 568.431C1079.21 562.647 1083.26 552.815 1077.19 548.862C1077.29 553.586 1077 558.406 1077.19 563.226C1077.19 565.057 1076.03 568.817 1078.63 568.527V568.431ZM1098.3 556.381C1098.78 555.803 1093.77 550.597 1092.32 550.405L1095.31 566.985C1099.46 566.214 1095.31 558.502 1095.41 557.056C1095.41 555.996 1098.11 556.671 1098.3 556.381Z" fill="#DDAC6B"/>
<path d="M1185.83 505.098C1186.98 507.701 1186.6 509.822 1190.36 511.171C1189.78 513.677 1187.27 521.486 1187.27 522.353C1187.27 523.221 1189.68 523.221 1190.17 524.378C1194.5 533.921 1195.08 539.512 1189.3 548.477C1188.14 550.212 1186.12 550.405 1186.02 550.598C1185.63 551.562 1190.07 569.973 1181.2 568.431C1177.25 561.49 1171.85 544.525 1184.19 547.32C1180.53 539.223 1180.53 535.752 1184.19 527.751C1174.55 531.029 1181.49 534.788 1179.27 543.271C1177.73 549.344 1171.56 550.79 1170.6 551.947C1170.31 552.333 1173.78 557.345 1173.78 561.683C1173.78 565.057 1171.95 571.901 1169.83 574.504C1167.71 577.107 1165.2 573.155 1163.95 571.419C1159.61 565.25 1158.07 559.177 1160.96 552.044C1165.1 541.729 1168.48 549.634 1169.15 548.862C1169.54 548.38 1165.58 541.343 1166.07 536.042C1166.64 530.065 1171.18 520.522 1176.67 527.751C1171.46 516.859 1173.39 511.557 1179.75 502.11C1182.45 501.628 1183.71 504.134 1185.73 505.098H1185.83Z" fill="#DDAC6B"/>
<path d="M1205.49 658.948C1206.65 658.08 1229.3 664.153 1233.54 664.828C1236.05 665.214 1244.24 664.635 1244.72 665.021C1245.11 665.31 1244.43 668.395 1244.72 669.552C1240.68 673.215 1204.14 665.985 1204.04 662.804C1204.04 662.611 1205.39 659.141 1205.49 659.044V658.948Z" fill="#DDAC6B"/>
<path d="M1134.54 529.198C1129.05 531.897 1122.01 517.727 1122.49 513.485C1122.49 512.714 1124.9 507.605 1125.48 506.641C1125.87 505.966 1129.24 501.532 1130.69 502.11C1143.51 512.714 1138.21 517.052 1134.54 529.198Z" fill="#DDAC6B"/>
<path d="M1158.64 420.559C1159.32 423.836 1163.75 423.643 1163.17 432.608C1160.48 435.789 1157.58 438.778 1157.1 443.212L1149.58 434.151C1155.75 446.489 1149.1 449.863 1143.51 459.792C1143.03 460.178 1140.23 457.479 1138.98 456.804C1138.69 452.08 1137.63 448.225 1138.98 443.212C1136.18 444.658 1134.55 449.574 1133 452.273C1132.81 451.888 1130.59 451.791 1130.01 448.514C1128.95 442.248 1129.05 429.042 1137.53 428.078L1140.52 441.67C1141.1 439.645 1143.12 428.56 1143.61 428.078C1146.69 424.896 1146.11 431.933 1148.14 431.066C1146.31 426.053 1153.92 421.812 1154.21 420.559C1155.46 420.655 1157.49 420.751 1158.74 420.559H1158.64Z" fill="#DDAC6B"/>
<path d="M1181.3 568.431C1186.98 578.36 1198.94 578.456 1204.43 589.542C1205.01 590.795 1203.85 592.434 1203.95 592.531C1204.43 592.82 1211.66 593.205 1214.94 594.362C1219.08 595.904 1229.78 604.387 1229.59 608.34C1229.4 610.846 1223.23 609.4 1223.61 612.099C1232.77 615.859 1236.43 629.258 1240.19 637.741C1242.7 637.066 1242.12 633.017 1244.05 630.222C1252.82 617.497 1268.44 616.244 1279.43 627.137C1278.75 619.136 1272.87 611.039 1264.39 610.557L1267.38 607.568C1260.73 608.243 1258.7 605.93 1259.86 599.375C1261.4 590.313 1286.27 571.323 1285.5 590.988L1288.49 589.446C1287.14 602.652 1296.59 612.678 1295.91 626.173C1295.24 638.801 1288.2 646.127 1280.97 655.092C1278.08 658.563 1279.91 663.382 1271.91 661.936C1271.81 664.925 1277.02 662.611 1277.88 665.889C1279.91 673.311 1272.68 673.311 1267.38 670.998C1271.81 685.265 1258.99 675.047 1258.32 675.529C1258.03 675.721 1259.28 678.71 1256.1 678.71C1250.89 678.71 1245.79 674.565 1244.72 669.552C1250.12 664.732 1243.18 663.382 1242.03 660.973C1236.72 650.272 1236.82 642.561 1227.37 631.764C1223.71 627.619 1208.09 616.244 1203.47 617.015C1201.35 617.401 1197.59 621.642 1193.35 619.715L1194.89 625.691C1183.8 626.173 1179.56 615.184 1172.24 609.111C1171.27 620.486 1189.39 625.788 1191.8 634.078C1192.48 636.488 1191.61 636.488 1189.49 636.391C1176 635.62 1159.99 612.678 1169.15 600.146C1172.43 597.736 1184.48 619.136 1189.97 616.437C1190.36 616.244 1191.32 611.424 1197.78 613.738C1199.23 601.399 1185.06 604.098 1177.63 599.953C1174.07 598.025 1170.4 592.723 1167.61 589.639C1167.51 585.59 1165.49 581.734 1166.16 577.589C1168.57 577.974 1178.79 592.434 1181.2 585.879C1181.59 585.011 1176.86 585.011 1175.03 582.987C1170.79 578.36 1173.01 570.745 1176.67 566.214C1178.21 564.961 1179.66 568.238 1181.2 568.528L1181.3 568.431ZM1202.41 589.542L1193.35 588C1194.12 592.049 1200.58 593.494 1202.41 589.542ZM1205.49 600.146L1200.19 594.169C1199.9 600.339 1197.2 598.796 1191.9 598.7C1194.7 603.809 1201.15 598.025 1205.49 600.146ZM1208.48 609.207L1202.5 606.123L1204.05 613.641L1208.58 609.111L1208.48 609.207ZM1276.34 652.875C1290.51 623.088 1245.3 614.895 1245.4 645.163C1245.4 657.502 1255.71 648.152 1259.28 647.188C1267.47 644.971 1270.75 647.766 1276.25 652.875H1276.34ZM1259.76 666.467C1260.73 665.696 1260.82 658.563 1258.99 657.406L1255.23 660.394C1259.76 659.719 1258.7 662.611 1256.77 665.696C1256.58 666.949 1259.57 666.564 1259.76 666.371V666.467Z" fill="#DDAC6B"/>
<path d="M1134.54 529.199C1136.66 528.138 1138.11 526.307 1139.85 524.668C1142.74 527.271 1146.21 532.187 1146.59 536.139C1146.98 540.092 1145.05 542.694 1145.05 544.911C1145.05 545.875 1147.36 545.875 1148.04 546.936C1155.94 559.66 1152.86 564.384 1145.05 575.951C1144.57 575.759 1143.03 576.433 1142.35 575.662C1141.87 575.18 1137.92 563.805 1137.82 562.745C1137.34 557.636 1142.93 551.948 1142.06 550.31C1141.97 550.02 1140.04 551.852 1137.53 549.731C1130.21 543.465 1132.23 536.718 1134.54 529.199Z" fill="#DDAC6B"/>
<path d="M1102.83 387.397C1102.83 387.397 1102.06 388.747 1104.95 389.036C1114.2 390 1125 388.169 1134.45 388.94L1129.92 387.397C1130.69 376.601 1142.06 377.854 1148.04 372.359L1143.51 371.588C1146.79 366.672 1142.54 368.6 1140.14 364.455C1136.09 357.418 1130.01 338.524 1145.05 345.272V340.741C1150.16 339.102 1147.36 346.139 1151.12 346.814C1150.74 344.019 1153.44 341.609 1153.44 339.102C1153.44 334.186 1143.99 332.74 1156.43 325.703C1156.23 332.258 1160.96 329.559 1161.73 330.234C1161.92 330.427 1161.92 334.572 1161.73 334.764C1160.96 335.632 1156.62 332.837 1157.2 337.078C1157.2 337.56 1161.44 344.983 1161.73 345.368C1163.17 346.911 1164.14 339.102 1167.7 340.837L1166.26 348.356L1168.48 343.729C1183.51 340.934 1174.45 359.828 1170.69 366.865C1169.73 368.696 1166.26 366.383 1169.25 372.456L1164.72 373.227C1172.14 376.408 1177.73 378.432 1182.84 385.277L1178.31 389.036C1187.18 387.976 1199.23 390.578 1207.61 389.036C1208.86 388.843 1208.38 387.494 1208.48 387.494C1203.95 387.108 1199.42 387.301 1194.89 385.951L1197.88 384.409C1199.13 382.867 1184.09 367.636 1194.12 367.732C1196.43 367.732 1198.65 371.299 1199.32 370.817C1199.13 368.6 1201.54 366.961 1202.02 365.13C1203.76 358.285 1201.44 361.177 1198.94 360.213C1192.77 357.9 1201.83 357.225 1202.12 356.936C1203.08 356.068 1202.12 352.984 1202.41 352.694C1205.97 348.935 1206.84 355.972 1207.42 356.743C1208 357.514 1209.73 357.129 1209.83 357.321C1211.66 359.828 1203.18 362.527 1206.74 367.058C1209.54 370.624 1211.56 367.732 1213.78 367.925C1222.36 368.696 1212.24 377.95 1211.66 380.939C1211.27 382.867 1213.2 385.662 1212.91 385.855C1212.53 386.144 1210.02 385.373 1208.67 386.144C1208.19 386.433 1208.38 387.397 1208.29 387.397C1212.43 387.783 1216.29 388.361 1220.34 387.397C1221.11 391.832 1217.73 394.531 1215.81 397.905C1219.76 398.579 1220.72 393.856 1223.42 392.699C1232 388.843 1239.81 394.434 1235.86 403.592C1232.1 412.268 1228.72 406.002 1224 405.52C1210.7 404.074 1218.7 411.207 1218.99 416.895C1219.66 430.776 1213.68 418.244 1210.41 416.317C1206.74 414.099 1197.2 409.954 1196.24 416.124L1202.31 416.895C1193.44 421.136 1194.21 426.824 1191.42 434.632C1190.74 436.56 1189.49 441.476 1187.27 441.765C1182.93 428.752 1184.96 426.92 1194.79 418.341C1191.13 415.931 1188.81 423.064 1185.73 423.643C1184.67 418.534 1187.66 416.702 1190.26 413.135C1180.52 413.907 1181.58 432.993 1173.68 420.654L1172.14 429.716C1166.26 426.438 1169.92 418.148 1170.6 413.135C1166.07 416.22 1164.43 419.787 1158.55 420.654C1157.39 414.967 1164.14 409.954 1167.61 406.291L1161.53 402.532C1164.52 403.496 1173.29 400.025 1173.29 397.23C1173.29 395.591 1166.64 392.796 1173.58 391.157C1168.86 390.289 1171.46 387.012 1170.21 384.698C1169.73 383.831 1166.55 383.059 1165.2 381.421C1163.37 379.204 1161.63 372.938 1159.22 373.709C1157.78 374.191 1158.64 379.011 1156.14 379.782C1150.83 381.324 1154.21 373.902 1153.92 373.805C1148.42 370.721 1150.26 375.926 1149.87 376.794C1146.5 383.541 1140.91 383.831 1140.42 384.505C1140.23 384.795 1143.03 389.518 1138.79 391.157C1145.73 392.796 1138.4 395.784 1139.46 397.905C1140.71 400.507 1146.4 402.628 1149.39 402.435L1144.86 406.195C1148.14 408.99 1154.98 415.931 1153.92 420.558C1149 420.076 1147.27 418.919 1143.41 416.027C1142.54 417.281 1145.05 428.463 1140.42 429.619C1140.14 422.197 1132.23 414.099 1131.36 407.737C1130.5 401.375 1138.5 410.533 1138.88 409.954C1138.11 408.219 1140.81 405.809 1140.42 405.424C1139.27 404.46 1129.15 402.532 1126.83 403.881C1125.39 405.424 1138.11 420.462 1135.89 424.992L1123.84 414.485L1125.29 423.546L1122.3 424.318C1131.07 427.595 1123.84 434.343 1125.29 441.669C1117.29 434.246 1120.66 421.715 1108.71 416.799L1114.78 416.027C1110.64 409.665 1098.11 417.184 1095.89 423.546C1090.68 418.148 1094.64 412.364 1096.66 406.966C1091.46 402.821 1080.76 408.605 1079.5 408.316C1075.55 407.448 1073.33 395.109 1078.54 392.603C1089.91 387.108 1090.68 400.315 1101.19 400.893L1099.65 394.916L1097.43 397.905C1092.61 394.531 1087.99 385.855 1096.66 387.301L1097.43 391.832C1099.75 391.832 1094.44 387.494 1102.73 387.301C1098.2 384.987 1101.48 383.445 1100.52 381.324C1099.17 378.143 1094.54 372.745 1095.21 370.046C1096.47 364.937 1103.79 371.106 1104.28 370.721C1104.76 370.335 1106.3 362.623 1105.91 361.177C1105.53 359.828 1103.02 360.31 1102.93 360.117C1100.71 357.129 1105.05 357.225 1105.43 356.647C1105.91 355.875 1106.88 348.838 1110.45 352.598C1110.73 352.887 1109.77 355.972 1110.73 356.839C1111.02 357.129 1119.99 357.707 1113.92 360.117C1111.6 360.985 1107.84 358.96 1111.22 366.094C1113.43 370.721 1117.67 367.058 1119.51 368.311C1124.13 371.395 1116.9 378.432 1115.75 381.324C1114.98 383.349 1116.52 385.469 1116.42 385.662C1115.27 387.301 1105.53 387.205 1102.93 387.301L1102.83 387.397ZM1158.64 366.286L1160.19 352.694L1157.2 360.213L1152.67 354.14C1152.67 362.72 1158.84 367.925 1146.59 366.19C1146.21 368.793 1150.06 367.636 1151.9 367.636C1156.43 367.829 1160.96 367.54 1165.49 367.636L1158.74 366.094L1158.64 366.286ZM1107.55 378.143C1106.78 377.468 1108.42 374.769 1105.91 375.348C1107.36 380.553 1103.7 384.216 1110.45 382.867V376.794C1110.45 376.794 1107.94 378.432 1107.65 378.047L1107.55 378.143ZM1202.41 378.336C1201.83 377.854 1203.66 374.769 1200.86 375.348C1202.21 377.179 1200.48 382.674 1200.86 382.867C1205.59 385.18 1206.55 379.204 1206.94 375.348C1206.26 374.48 1203.27 379.107 1202.41 378.336ZM1184.28 403.978L1179.66 403.303L1170.69 406.966C1175.22 409.376 1177.05 405.713 1181.2 405.52V413.039L1184.19 403.978H1184.28ZM1119.41 407.062C1119.41 407.062 1113.24 405.424 1111.89 403.978C1107.75 409.762 1123.84 411.689 1119.41 407.062ZM1200.96 403.978C1200.19 403.11 1190.94 407.93 1193.44 409.954C1194.12 410.533 1204.14 408.605 1200.96 403.978Z" fill="#DDAC6B"/>
<path d="M1127.03 548.863C1129.05 547.899 1130.3 545.393 1133 545.875C1136.76 553.876 1136.57 557.539 1133 565.443C1139.17 563.805 1143.03 584.916 1131.46 585.012C1131.65 585.108 1130.5 589.061 1133.68 588C1138.59 586.458 1142.45 579.806 1145.05 575.951C1149.77 578.361 1142.45 586.072 1146.5 588C1146.21 584.53 1146.69 584.819 1149.49 586.554C1146.5 582.313 1151.61 564.286 1154.02 562.455C1156.81 560.431 1161.82 570.938 1162.31 572.962C1165 583.662 1158.93 590.41 1157 600.146L1151.03 591.085C1151.03 594.362 1153.53 603.327 1156.33 604.677C1159.7 598.604 1162.59 592.145 1163.17 585.108C1165.1 585.687 1166.26 588.097 1167.7 589.639C1168.09 602.556 1164.04 603.135 1162.31 612.196C1160.38 622.221 1165.97 620.679 1168.76 624.824C1172.33 630.029 1174.74 636.488 1179.85 641.693C1182.74 644.585 1195.37 652.394 1196.04 653.454C1196.72 654.514 1196.33 656.249 1196.43 657.503C1199.22 653.84 1208.09 644.393 1209.25 640.922C1209.92 639.091 1205.88 636.488 1206.94 634.946C1207.42 634.271 1221.49 629.837 1221.97 630.415L1220.43 646.995C1220.05 647.574 1215.13 643.525 1214.46 644.007C1213.78 644.489 1207.23 656.635 1205.39 659.045C1198.45 668.396 1191.13 677.553 1184.28 687C1184.38 687.675 1188.43 693.459 1188.81 693.748C1189.68 694.423 1192.28 689.603 1194.79 690.76V707.34C1194.31 707.918 1181.39 702.617 1180.43 701.363C1179.17 699.628 1185.63 696.833 1180.43 693.844L1166.84 711.871L1157 693.844C1155.75 692.88 1146.59 709.461 1146.4 711.967C1145.24 712.835 1132.13 695.58 1132.81 692.398C1131.94 691.724 1128.57 696.833 1128.28 697.7C1127.99 698.857 1135.22 699.628 1131.27 702.231C1128.09 704.352 1121.34 705.219 1117.67 707.533V690.952C1122.49 696.158 1129.34 685.458 1128.18 683.434C1127.99 683.048 1125.96 684.783 1124.42 683.626C1121.15 681.12 1111.02 662.708 1109.38 662.515C1104.95 665.214 1100.03 666.468 1095.02 667.624C1085.96 669.552 1075.36 669.552 1067.36 671.384C1065.81 671.769 1064.95 677.842 1057.81 678.903C1056.95 678.999 1046.82 678.903 1046.25 678.71C1042.97 677.65 1043.07 674.083 1041.72 673.312C1040.37 672.541 1031.3 672.059 1033.71 666.853C1035.26 663.576 1040.27 665.311 1040.56 662.322C1031.02 663.768 1034.49 661.166 1031.5 657.021C1022.63 644.682 1014.53 636.392 1016.75 619.619C1018.1 609.593 1025.04 600.243 1023.88 589.832L1026.87 592.82C1024.85 564.383 1070.44 607.087 1043.45 607.954L1046.44 610.943C1037.67 612.196 1033.52 621.354 1031.4 629.065C1045.38 614.22 1063.21 618.751 1071.41 636.584C1072.85 636.584 1080.85 612.1 1087.21 612.389C1088.85 610.654 1082.01 610.654 1082.68 607.183C1083.17 604.484 1089.53 604.677 1091.74 604.87L1087.21 603.327C1087.5 597.64 1096.08 594.844 1100.81 593.495C1107.55 591.567 1116.23 593.688 1118.93 588.289C1115.65 588.097 1112.66 589.543 1109.48 590.217C1107.46 590.603 1106.49 593.013 1106.88 589.061L1124.23 574.697C1125.68 577.879 1126.45 582.024 1125 585.205C1126.54 585.59 1130.3 584.723 1131.07 585.205C1122.21 575.179 1128.76 574.119 1132.62 565.636C1129.05 566.6 1126.93 571.998 1124.52 560.72C1123.56 555.996 1125.48 553.586 1126.54 549.056C1125.48 549.538 1124.52 550.887 1123.55 549.923C1115.46 540.38 1117 533.729 1122.11 523.414C1133.19 532.379 1129.05 538.356 1126.64 549.056L1127.03 548.863ZM1145.05 603.135C1143.89 598.026 1143.32 594.652 1145.05 589.543C1138.5 596.194 1132.91 607.28 1122.98 597.929C1122.11 597.158 1122.49 595.616 1122.4 595.519C1121.72 595.037 1119.41 598.411 1117.1 598.604C1114.11 598.893 1110.16 593.495 1108.9 597.736C1108.9 598.026 1113.82 601.014 1114.4 601.11C1118.35 601.689 1121.72 595.808 1125.48 602.267C1117.58 603.617 1114.3 604.677 1114.88 613.546C1121.34 611.039 1122.69 616.63 1123.17 616.63C1128.09 616.63 1137.34 603.231 1141.29 600.05L1145.05 603.038V603.135ZM1105.82 634.849C1100.03 643.139 1110.25 648.441 1114.11 655.96C1122.21 649.213 1130.69 643.814 1137.44 635.62C1138.98 633.693 1148.14 621.161 1148.81 619.811C1150.93 615.184 1148.42 610.846 1148.04 606.316L1139.65 625.788C1134.83 631.09 1127.12 638.609 1119.41 635.717C1124.81 625.113 1138.69 622.125 1140.52 609.304C1132.42 615.184 1128.28 626.752 1116.42 625.884L1119.41 619.908C1114.78 619.908 1109.29 621.45 1108.81 615.377C1106.3 614.799 1107.94 617.112 1107.07 618.076C1106.59 618.558 1098.88 620.679 1095.7 622.607C1078.63 633.114 1077.09 644.778 1070.06 661.744C1069.09 663.961 1064.56 663.865 1066.59 669.649C1069.67 670.131 1066.78 665.407 1068.9 665.022C1071.41 664.636 1074.68 665.407 1077.67 665.022C1087.5 663.576 1098.2 658.949 1107.26 660.684C1108.42 659.623 1097.91 645.357 1096.76 644.778C1094.73 643.718 1093.29 648.345 1090.68 647.092V630.511L1105.72 635.042L1105.82 634.849ZM1162.69 626.27C1162.69 626.27 1156.81 621.547 1156.43 621.547C1155.94 621.547 1148.71 625.692 1148.42 625.981C1148.23 626.174 1149.29 628.583 1147.94 630.704C1140.91 642.368 1129.34 654.322 1116.42 658.949C1115.55 660.009 1131.27 677.553 1130.01 681.506C1134.74 678.71 1141 662.612 1143.6 660.395C1144.47 659.623 1145.73 660.202 1146.69 661.359C1149 663.961 1155.37 680.06 1156.33 680.06L1166.93 660.491L1179.75 680.06C1180.91 680.831 1195.85 660.491 1194.79 658.949C1186.4 655.671 1178.69 649.02 1172.91 642.368C1168.47 637.259 1165.87 630.415 1162.59 626.27H1162.69ZM1037.96 652.876C1038.82 646.61 1046.73 645.935 1052.03 647.188C1057.33 648.441 1057.72 653.84 1064.46 649.984C1069.96 646.803 1065.43 634.656 1062.15 630.993C1052.51 620.197 1033.91 627.523 1033.33 641.597C1033.23 644.585 1034.87 651.43 1037.96 652.876ZM1057.52 658.949C1055.98 659.431 1053.48 657.021 1052.99 657.406C1051.74 658.37 1049.14 669.938 1055.98 666.468C1050.97 660.587 1054.44 663.286 1057.52 658.949ZM1144.38 674.083C1134.93 684.879 1134.93 687.386 1144.38 698.182C1153.63 689.314 1153.53 683.241 1144.38 674.083ZM1169.25 674.083C1166.84 672.059 1160.76 683.723 1160.57 685.651C1160.47 686.904 1165.78 697.797 1166.26 698.182C1167.13 698.857 1168.38 698.375 1169.34 697.218C1169.92 696.544 1176.57 687.289 1176.67 686.615C1176.77 685.94 1169.82 674.469 1169.25 673.987V674.083Z" fill="#DDAC6B"/>
<path d="M1163.17 432.703C1164.04 431.643 1166.93 427.594 1167.7 428.173L1172.24 438.68C1174.07 433.185 1174.55 423.064 1180.53 431.257C1184.77 437.138 1181.39 442.729 1183.22 447.452C1183.51 448.03 1191.32 457.188 1191.9 457.574C1196.04 460.562 1204.43 458.441 1200.29 464.418C1198.17 467.406 1192 466.346 1188.91 465.864C1191.23 470.78 1197.88 473.19 1202.99 471.648C1206.36 470.587 1208.19 462.104 1210.89 465.864C1217.06 474.54 1207.81 489.674 1197.3 485.625C1192.48 483.794 1190.36 478.685 1186.02 476.371C1183.71 482.155 1194.31 483.697 1195.08 486.493C1196.43 491.409 1194.02 498.446 1193.54 503.555C1196.62 502.977 1193.25 499.025 1198.07 502.109L1196.53 488.517L1208.58 486.975L1207.13 496.036C1216.09 495.361 1224.87 500.278 1234.12 495.169C1247.23 487.939 1227.66 470.684 1229.98 459.405C1231.23 453.043 1250.99 440.511 1256.97 433.474C1260.82 428.944 1263.33 423.931 1266.7 419.111L1268.92 435.692C1269.88 421.425 1278.56 407.254 1293.11 404.073V420.654C1297.45 418.918 1293.89 414.099 1295.33 408.508C1296.87 402.531 1309.98 382.095 1314.23 376.118C1323.19 363.104 1333.89 351.537 1345.17 340.74C1359.53 379.685 1326.08 415.545 1294.66 432.8H1303.72L1299.19 444.849C1304.2 442.825 1303.72 436.848 1305.84 432.703C1309.02 426.63 1340.93 397.904 1348.25 392.12C1355.58 386.336 1362.52 381.034 1370.91 376.986C1375.53 377.275 1371.68 397.229 1370.62 400.796C1366.47 414.484 1353.27 421.907 1342.85 430.39L1315.86 444.849C1340.73 438.198 1365.03 427.787 1391.34 429.811C1384.88 441.283 1373.41 448.802 1361.56 453.621C1341.41 461.815 1311.33 467.599 1290.13 471.262C1283.09 472.515 1276.82 476.66 1269.02 473.576C1268.63 476.082 1272.97 475.118 1273.45 477.432C1273.74 478.781 1270.75 481.769 1272.78 482.637C1277.79 472.033 1285.4 476.468 1293.79 475.022C1297.55 474.347 1304.39 470.684 1309.41 469.527C1336.4 463.261 1361.75 458.827 1389.7 463.068C1390.57 466.539 1389.03 465.575 1387.77 466.539C1366.18 483.312 1333.5 485.336 1307.38 482.83L1303.72 478.877L1325.41 476.468L1344.49 472.13C1329.17 470.877 1314.23 473.961 1299.19 476.66C1304.3 479.456 1303.24 485.432 1303.72 485.722C1305.65 486.878 1340.73 486.3 1348.06 487.36C1359.24 488.999 1370.13 495.747 1380.64 499.314C1381.8 503.073 1377.75 502.88 1374.95 503.362C1349.7 507.797 1319.24 502.977 1294.66 496.229C1294.18 499.314 1295.81 500.181 1298.51 500.663C1318.37 504.712 1338.52 503.073 1355.1 518.015C1356.83 519.557 1365.6 530.643 1365.6 531.607C1365.12 541.247 1322.32 523.317 1317.31 521.774L1327.91 528.522C1335.34 535.559 1343.05 544.331 1344.49 554.935C1323.77 557.345 1313.55 542.21 1299.96 530.836C1298.22 529.39 1297.55 527.172 1294.66 527.847C1306.22 540.475 1320.2 552.718 1320.3 571.612C1313.36 571.033 1306.9 568.141 1301.5 563.996C1297.16 560.719 1277.79 537.873 1274.99 533.149C1273.93 531.318 1271.81 524.666 1275.76 526.305C1283.67 534.017 1291.57 543.271 1302.18 547.416C1299.77 538.837 1273.64 525.148 1272 521.003C1270.17 516.472 1279.81 520.907 1279.52 517.244H1267.47C1282.32 537.969 1259.57 526.883 1258.41 527.847C1260.63 534.981 1260.53 530.546 1264.77 531.125C1278.66 533.149 1297.45 566.117 1294.56 580.577C1273.74 575.564 1266.99 556.284 1256.87 539.897C1264.68 534.209 1274.7 559.658 1281.74 562.55C1284.05 556.092 1268.34 537.583 1263.62 535.366C1262.36 534.788 1264 538.258 1260.63 538.547C1256.97 538.837 1254.17 537.101 1250.8 536.909C1261.4 550.308 1267.96 568.045 1262.85 585.204C1245.01 579.42 1243.18 559.755 1241.74 543.753C1241.54 541.343 1243.37 527.847 1240.96 527.944C1240.19 533.342 1239.9 537.776 1237.98 543.078C1236.82 546.163 1233.93 552.429 1231.23 549.151C1230.94 554.164 1231.23 558.887 1232.48 563.803C1233.16 566.406 1231.42 568.045 1235.66 567.274C1236.53 559.948 1232.77 549.247 1240.19 544.62C1241.54 558.02 1243.95 574.311 1234.89 585.3C1224.19 571.901 1229.01 552.429 1225.83 537.005C1225.25 537.005 1218.7 551.368 1225.06 546.066C1224.1 553.971 1223.42 562.165 1221.01 569.876C1219.57 574.214 1217.06 582.119 1211.56 582.312C1210.31 581.155 1206.55 554.935 1216.1 556.67L1217.64 565.731L1220.63 550.693C1216.29 554.26 1211.47 557.73 1205.59 558.212L1208.58 547.705L1204.05 549.247C1201.44 536.427 1193.15 530.836 1193.44 516.762C1193.44 514.834 1195.18 511.749 1194.98 511.556C1194.5 511.171 1191.51 511.942 1190.45 511.556C1191.9 505.387 1193.44 509.146 1185.92 505.483C1182.45 497.675 1182.55 492.662 1183.71 484.372C1176.77 486.686 1183.32 491.602 1180.62 499.41C1180.04 501.145 1174.16 510.014 1171.66 507.025C1167.99 502.495 1165.2 495.651 1166.36 489.77C1166.93 486.878 1169.73 485.914 1169.34 482.926L1163.37 485.914C1166.55 479.07 1167.9 477.046 1163.37 470.877C1163.56 466.924 1163.17 462.779 1163.37 458.827L1171.66 467.888C1172.52 461.719 1173.49 457.863 1176.96 452.85L1184.48 459.598L1182.94 449.862L1180.72 452.85L1174.65 445.331C1173.87 445.331 1173.87 463.068 1169.34 459.694C1168.19 458.827 1160.86 448.898 1160.57 447.259C1159.41 441.668 1162.98 438.776 1163.37 433.282L1163.17 432.703ZM1298.99 414.581C1301.12 416.701 1331.29 385.854 1329.17 378.335L1317.12 389.71L1298.99 414.581ZM1347.29 410.05C1332.06 415.834 1318.95 428.365 1306.51 438.68C1322.03 433.089 1337.07 423.063 1347.29 410.05ZM1311.04 446.295C1307.48 448.609 1296.78 446.006 1296.1 446.392C1295.81 446.584 1295.24 449.573 1293.79 450.826C1289.07 455.067 1284.92 457.381 1278.37 457.767C1273.45 458.056 1269.02 453.525 1270.37 461.333C1275.67 460.273 1284.05 458.152 1289.26 458.152C1294.46 458.152 1297.07 461.333 1301.12 461.237C1310.08 461.044 1331 453.718 1339.48 449.669C1342.85 448.03 1342.66 447.452 1339.09 447.838C1326.18 448.898 1309.79 458.441 1300.73 459.212C1297.74 459.502 1293.79 455.839 1290.03 456.899L1311.14 446.392L1311.04 446.295ZM1270.37 447.741C1267.76 447.066 1266.41 449.573 1264.29 450.055C1262.56 450.44 1260.73 449.284 1260.05 449.573C1259.47 449.766 1253.3 456.899 1252.24 458.248C1260.15 457.67 1265.74 453.911 1270.37 447.741ZM1178.31 482.444L1173.78 471.937C1174.36 475.889 1172.81 478.01 1170.79 480.998C1174.45 479.649 1175.42 480.42 1178.31 482.541V482.444ZM1274.9 486.975C1272.2 482.83 1260.05 486.878 1259.86 489.192C1259.76 490.927 1263.52 491.795 1264.97 489.867L1274.9 486.975ZM1338.23 493.048C1327.24 492.277 1311.53 487.168 1300.92 487.553C1295.52 487.746 1288.87 491.891 1282.41 490.06L1290.7 494.59L1291.38 491.602C1305.55 488.903 1317.7 495.265 1332.93 494.59C1334.76 494.59 1338.52 495.747 1338.13 493.144L1338.23 493.048ZM1289.93 508.086C1281.84 507.411 1269.79 504.519 1267.28 496.036C1264.29 495.747 1266.8 499.603 1265.45 501.82C1264.97 502.688 1262.17 501.145 1262.85 503.555C1267.09 500.374 1283.38 509.05 1283.86 512.038C1284.15 513.966 1280.58 515.99 1280.97 517.822C1281.16 518.593 1291.96 527.558 1293.02 525.437C1291.28 525.148 1279.43 511.171 1286.17 514.159C1288.58 515.219 1297.74 524.184 1302.18 526.883C1304.2 528.136 1316.06 534.691 1317.12 533.824C1314.71 527.365 1307.28 523.413 1301.5 520.039C1298.22 518.111 1282.99 513.484 1285.4 509.725L1289.93 508.182V508.086ZM1329.17 514.159C1319.24 510.207 1308.54 504.712 1298.22 502.206C1296.97 501.916 1297.84 505.098 1296.01 505.869C1304.87 509.146 1313.65 513.291 1323.09 515.026C1324.64 515.316 1329.46 517.147 1329.17 514.255V514.159ZM1238.65 523.22C1238.65 518.497 1241.06 512.327 1235.66 509.628C1238.07 524.281 1225.73 518.015 1225.06 518.69C1224.39 519.364 1225.45 528.426 1225.06 530.739C1228.43 530.257 1224.87 524.763 1228.05 522.449C1228.53 522.063 1235.76 520.135 1236.34 520.135C1237.98 520.232 1236.15 523.895 1238.65 523.22ZM1303.53 514.159L1291.48 511.171C1292.15 513.484 1302.66 517.533 1303.53 514.159ZM1255.23 566.888C1254.17 557.73 1252.05 546.163 1249.16 537.583C1248.29 535.077 1248.1 533.149 1244.72 533.728C1248.87 539.993 1248.39 548.284 1250.32 555.995C1251.09 558.887 1252.63 565.346 1255.23 566.888Z" fill="#DDAC6B"/>
<path d="M1249.06 361.949C1251.66 365.516 1245.5 372.939 1246.36 375.831C1247.23 378.626 1256.19 380.843 1255.33 385.856H1246.27L1244.72 376.795C1244.24 382.482 1245.88 389.23 1243.57 394.532C1242.6 396.652 1243.18 396.845 1240.19 396.363C1241.35 390.965 1237.49 385.278 1237.4 380.554C1237.4 374.577 1242.41 369.372 1241.54 363.299C1237.98 363.299 1235.08 361.66 1232.1 359.925C1230.17 358.865 1224.29 355.587 1225.06 352.695C1232.29 351.346 1236.34 355.973 1241.83 359.347C1243.66 360.503 1248.68 361.467 1249.06 361.949Z" fill="#DDAC6B"/>
<path d="M1069.57 360.213C1072.85 372.745 1077.48 383.927 1070.35 396.459C1066.59 388.747 1068.32 383.445 1057.53 385.084C1057.72 379.204 1066.2 378.722 1066.59 378.24C1068.42 376.215 1056.56 359.732 1069.67 360.213H1069.57Z" fill="#DDAC6B"/>
<path d="M1230.75 381.035C1229.49 382.288 1225.45 383.059 1223.61 384.409C1228.63 375.155 1220.53 371.781 1219.37 365.129C1218.31 359.345 1220.14 351.441 1225.45 359.153C1228.72 363.972 1235.66 375.926 1230.75 380.938V381.035Z" fill="#DDAC6B"/>
<path d="M1087.7 355.683C1086.35 354.237 1075.26 365.515 1071.12 363.202C1069.67 356.454 1081.91 351.345 1086.73 352.598C1088.37 352.984 1087.6 355.586 1087.7 355.683C1089.53 357.225 1093.48 356.358 1093.38 362.238C1093.19 369.757 1085.48 371.299 1087.41 380.939C1088.27 385.18 1082.2 382.481 1080.95 379.879C1076.32 370.239 1087.02 364.551 1087.7 355.779V355.683Z" fill="#DDAC6B"/>
<path d="M1151.12 530.739C1138.5 527.173 1138.4 510.496 1145.92 502.109C1157.39 509.339 1155.46 519.654 1151.12 530.739Z" fill="#DDAC6B"/>
<path d="M1161.73 530.739C1156.14 518.979 1155.17 511.46 1165.49 502.109C1173.87 508.761 1173.49 527.944 1161.73 530.739Z" fill="#DDAC6B"/>
<path d="M1157.1 526.209C1162.79 537.487 1166.74 542.886 1156.33 553.297C1146.21 545.874 1147.75 533.632 1157.1 526.209Z" fill="#DDAC6B"/>
<path d="M1184.28 657.406C1175.03 657.888 1169.05 648.634 1160.18 649.887C1159.99 652.875 1164.33 649.887 1163.17 653.647C1155.17 665.6 1154.79 662.997 1148.14 652.201L1151.12 649.983C1145.82 647.188 1145.53 651.622 1141.58 653.261C1137.63 654.9 1132.81 657.117 1128.47 657.502C1138.59 646.706 1148.62 636.488 1157.1 624.342C1161.44 638.609 1175.99 645.935 1184.28 657.502V657.406Z" fill="#DDAC6B"/>
</svg>
