<svg width="1738" height="1520" viewBox="0 0 1738 1520" fill="none" xmlns="http://www.w3.org/2000/svg">
<path d="M1584.23 0.265625H153.148C68.7134 0.265625 0.265625 68.715 0.265625 153.152V1366.31C0.265625 1450.75 68.7134 1519.2 153.148 1519.2H1584.23C1668.66 1519.2 1737.11 1450.75 1737.11 1366.31V153.152C1737.11 68.715 1668.66 0.265625 1584.23 0.265625Z" fill="#F9F7F4"/>
<path d="M1584.23 0.265625H153.148C68.7134 0.265625 0.265625 68.715 0.265625 153.152V1366.31C0.265625 1450.75 68.7134 1519.2 153.148 1519.2H1584.23C1668.66 1519.2 1737.11 1450.75 1737.11 1366.31V153.152C1737.11 68.715 1668.66 0.265625 1584.23 0.265625Z" stroke="#AF711E" stroke-width="0.53" stroke-miterlimit="10"/>
<path d="M290.029 514.16C236.626 461.142 248.29 369.564 312.585 331.391C402.522 278.083 511.352 358.575 486.675 459.985C465.371 547.803 354.035 577.686 290.029 514.16ZM414.475 361.081H364.349C354.71 361.081 336.298 372.649 330.9 380.939C313.935 406.774 327.719 439.26 352.107 454.105L320.875 501.532H347.577L381.893 449.96L381.411 448.224C364.639 436.753 346.902 426.632 348.155 403.4C348.733 393.664 357.987 380.554 368.302 380.554H389.798V501.532H414.475V360.985V361.081Z" fill="#F4E3CE"/>
<path d="M674.645 344.211C675.32 344.693 673.392 345.85 673.392 346.139V493.819H690.261V553.682H661.631V517.244H574.491V553.682H545.861V493.819C559.26 495.651 559.742 491.602 563.116 480.517C568.707 462.394 569.671 435.788 570.635 416.509C571.791 393.663 571.213 370.335 571.888 347.488L573.816 344.211H674.645ZM643.413 367.635H597.915C596.083 409.568 599.264 453.429 586.251 493.819H643.509V367.635H643.413Z" fill="#DDAC6B"/>
<path d="M1217.83 392.314C1245.59 396.073 1256.49 428.656 1234.7 446.971L1224.96 452.177C1259.09 457.286 1259.28 502.014 1228.43 513.582C1226.31 514.353 1216.58 517.245 1215.13 517.245H1154.6V392.314C1174.26 394.242 1198.65 389.711 1217.73 392.314H1217.83ZM1184.67 441.766H1207.42C1211.37 441.766 1217.25 432.512 1217.16 428.077C1217.16 423.257 1212.43 414.389 1207.42 414.389H1184.67V441.669V441.766ZM1185.25 463.841L1183.32 465.769V493.049L1185.25 494.977H1206.07C1219.47 494.977 1225.54 473.866 1213.69 466.54C1212.91 466.058 1207.71 463.744 1207.42 463.744H1185.35L1185.25 463.841Z" fill="#DDAC6B"/>
<path d="M1481.28 517.245H1451.4L1450.05 506.834C1435.68 522.161 1403.01 523.703 1388.93 507.412C1377.27 493.917 1375.63 468.179 1388.35 454.876C1395.58 447.453 1417.08 439.163 1427.2 439.163H1449.95C1456.12 399.64 1409.17 413.329 1388.84 424.896V400.219C1421.32 385.759 1475.88 378.626 1479.93 426.921C1482.34 456.225 1477.13 487.94 1481.28 517.341V517.245ZM1450.05 458.635C1435.01 458.057 1409.56 457.961 1409.66 478.782C1409.66 497.869 1431.15 502.4 1444.84 493.049C1445.8 492.374 1450.14 488.326 1450.14 487.94V458.635H1450.05Z" fill="#DDAC6B"/>
<path d="M1038.92 402.05C1060.51 386.434 1114.69 381.228 1126.74 410.533C1134.06 428.27 1129.24 477.626 1129.92 499.701C1130.11 505.292 1132.33 511.268 1131.27 517.245H1102.64L1100.04 506.834C1068.61 537.006 1015.59 508.569 1032.66 464.805C1038.73 449.381 1062.83 439.163 1078.54 439.163H1099.36C1100.71 439.163 1101.39 436.175 1101.39 434.729C1101.19 399.158 1058.2 415.45 1038.92 424.896V402.147V402.05ZM1101.39 458.636H1082.49C1078.64 458.636 1067.07 463.166 1064.37 466.54C1060.22 471.649 1059.65 483.506 1062.54 489.097C1067.74 499.315 1083.26 499.219 1092.42 494.592C1094.16 493.724 1101.48 487.555 1101.48 486.687V458.732L1101.39 458.636Z" fill="#DDAC6B"/>
<path d="M743.278 390.001C829.648 378.241 829.937 512.04 762.364 519.655C681.007 528.717 680.91 398.484 743.278 390.001ZM747.134 413.426C725.541 417.86 727.469 467.505 734.217 483.024C743.085 503.171 768.823 500.569 776.149 480.229C781.065 466.348 781.161 429.524 770.269 418.342C764.678 412.654 754.653 411.883 747.134 413.426Z" fill="#DDAC6B"/>
<path d="M1300.44 449.574L1341.31 393.568L1371.96 392.314L1330.8 450.153L1377.17 517.245H1345.36L1300.44 456.033V517.245H1270.46V392.314H1300.44V449.574Z" fill="#DDAC6B"/>
<path d="M915.342 394.918V419.595C882.375 405.329 856.445 411.787 855.481 451.406C854.614 485.146 871.001 505.967 906.281 493.05C909.751 491.797 911.969 489.001 915.439 488.519V511.269C896.063 525.825 857.023 521.487 840.54 504.136C824.056 486.784 822.321 448.9 829.551 426.632C841.986 388.459 881.315 382.675 915.439 394.821L915.342 394.918Z" fill="#DDAC6B"/>
<path d="M1025.91 392.314V414.39H992.748L990.821 416.414V517.245H960.842V414.39H925.754V392.314H1025.91Z" fill="#DDAC6B"/>
</svg>
